<svg xmlns="http://www.w3.org/2000/svg" width="18" height="18" viewBox="0 0 18 18">
  <g fill="#FFF" fill-rule="evenodd">
    <path d="M2.10129545,1.8602 L0.651907023,1.8602 L0.00550247727,1.871918 L0.00550247727,17.3679194 L0.0182865682,17.9999594 L17.3479909,17.9999594 L17.9943955,17.9882406 L17.9943955,2.49224 L17.9824111,1.861 L15.898502,1.860218 L15.898502,2.793038 C15.898502,3.563358 15.257702,4.189918 14.4698748,4.189918 L14.112718,4.189918 C13.3248907,4.189918 12.6840907,3.563358 12.6840907,2.793038 L12.6840907,1.860218 L5.31574977,1.860218 L5.31574977,2.793038 C5.31574977,3.563358 4.67494977,4.189918 3.8871225,4.189918 L3.52996568,4.189918 C2.74213841,4.189918 2.10133841,3.563358 2.10133841,2.793038 L2.10129545,1.8602 Z M1.27352045,3.10004 L1.3126725,3.10004 C1.29988841,3.11254 1.28630455,3.12504 1.27352045,3.138322 L1.27352045,3.10004 Z M16.7263159,3.10004 L16.7263159,3.138322 C16.7135318,3.12504 16.7007477,3.11254 16.6871639,3.10004 L16.7263159,3.10004 Z M16.7263159,6.61884 L16.7263159,16.76024 L1.27352045,16.76024 L1.27352045,6.61884 L16.7263159,6.61884 Z"/>
    <path d="M3.88718182 3.6672C4.37935909 3.6672 4.779675 3.2758 4.779675 2.79454L4.78047477.87266C4.78047477.39142 4.37938159 0 3.88718386 0L3.53002705 0C3.03784977 0 2.63753386.3914 2.63753386.87266L2.63753386 2.79376C2.63753386 3.275 3.03782932 3.66642 3.53002705 3.66642L3.88718182 3.6672zM14.4699545 3.6672C14.9621318 3.6672 15.3624477 3.2758 15.3624477 2.79454L15.3624477.87266C15.3624477.39142 14.9621523 0 14.4699545 0L14.1127977 0C13.6206205 0 13.2203045.3914 13.2203045.87266L13.2203045 2.79376C13.2203045 3.275 13.6206 3.66642 14.1127977 3.66642L14.4699545 3.6672z"/>
    <polygon points="2.757 9.879 5.402 9.879 5.402 7.809 2.757 7.809"/>
    <polygon points="6.037 9.879 8.682 9.879 8.682 7.809 6.037 7.809"/>
    <polygon points="9.317 9.879 11.963 9.879 11.963 7.809 9.317 7.809"/>
    <polygon points="12.598 9.879 15.244 9.879 15.244 7.809 12.598 7.809"/>
    <polygon points="2.757 12.569 5.402 12.569 5.402 10.499 2.757 10.499"/>
    <polygon points="6.037 12.569 8.682 12.569 8.682 10.499 6.037 10.499"/>
    <polygon points="9.317 12.569 11.963 12.569 11.963 10.499 9.317 10.499"/>
    <polygon points="12.598 12.569 15.244 12.569 15.244 10.499 12.598 10.499"/>
    <polygon points="2.757 15.259 5.402 15.259 5.402 13.19 2.757 13.19"/>
    <polygon points="6.037 15.259 8.682 15.259 8.682 13.19 6.037 13.19"/>
    <polygon points="9.317 15.259 11.963 15.259 11.963 13.19 9.317 13.19"/>
  </g>
</svg>
