<svg xmlns="http://www.w3.org/2000/svg" width="30" height="24" viewBox="0 0 30 24">
  <path fill="#D0D1D6" fill-rule="evenodd" d="M22.6866719,10.7916764 C22.499769,10.7916764 22.499769,10.5935645 22.499769,10.3937475 L22.499769,4.16620179 C22.499769,3.76827297 22.499769,3.57015674 22.1243462,3.372058 C22.1243462,3.372058 17.6241895,1.39187646 16.1239997,0.397928822 C16.1239997,0.397928822 15.7485769,0 14.9993318,0 C14.4369978,0 14.0615998,0.198107484 13.8746638,0.397928822 C12.5614925,1.58831382 7.87431735,3.56849535 7.87431735,3.56849535 C7.68741441,3.76831232 7.49889455,3.96642417 7.49889455,4.36434425 L7.49889455,10.5936388 C7.49889455,10.7917507 7.49889455,10.7917507 7.31199162,10.9915677 C6.56276296,11.1896751 3.74952565,11.9838102 1.87550529,12.5798552 C0.188544606,12.9777841 0,13.9717492 0,14.765893 L0,21.5220612 C0,22.9139552 0.749228662,23.5100002 1.87550529,23.5100002 L28.1244947,23.5100002 C30,23.5100002 30,21.9200075 30,20.7279174 L30,14.7657181 C29.9983872,13.573628 29.2491627,12.9776267 28.4983253,12.5796804 C26.6230098,11.9837227 23.6246515,10.9897751 22.6866719,10.7916764 Z M15.0195097,20.940024 C15.0195097,21.3388285 14.637488,21.7359154 14.2571117,21.7359154 L10.0598096,21.7359154 C9.67778791,21.7359154 9.29577465,21.3388241 9.29577465,20.940024 L9.29577465,4.92601274 C9.29577465,4.7274693 9.4859628,4.52720824 9.6777963,4.32865604 L14.2570529,2.73898567 C14.4472411,2.54043784 15.2112676,2.73898567 15.2112676,3.13779017 L15.2096265,20.939875 L15.0195097,20.940024 Z M27.885753,20.6289232 C27.885753,21.0358976 27.7032331,21.4411193 27.1540944,21.2385174 L23.3085366,20.019329 C22.576878,19.8167182 22.3943662,19.6123545 22.3943662,19.0027872 L22.3943662,17.9862453 C22.3943662,17.3766511 22.760985,17.1740493 23.3101076,17.3766511 L27.3381772,18.8001853 C27.704796,19.0027961 27.8873239,19.2071597 27.8873239,20.0193737 L27.885753,20.6289232 Z M27.885753,15.7920816 C27.885753,16.1733596 27.7032331,16.5529955 27.1540944,16.3631859 L23.1260248,15.4124625 C22.576878,15.2226445 22.3943662,15.0311845 22.3943662,14.4601053 L22.3943662,13.507748 C22.3943662,12.9366437 22.760985,12.7468342 23.3101076,12.9366437 L27.3381772,14.2702957 C27.704796,14.4601136 27.8873239,14.6515737 27.8873239,15.4125044 L27.885753,15.7920816 Z"/>
</svg>
