<svg xmlns="http://www.w3.org/2000/svg" width="19" height="16" viewBox="0 0 19 16">
  <path fill="#C6C6CD" fill-rule="evenodd" d="M111.4375,8.04819277 C111.4375,5.81592037 109.670542,4 107.5,4 C105.328766,4 103.5625,5.81592037 103.5625,8.04819277 C103.5625,10.2799321 105.328766,12.0963855 107.5,12.0963855 C109.670715,12.0963855 111.4375,10.2797544 111.4375,8.04819277 M114.938078,17.6173144 C115.231153,18.8121262 114.446015,20 113.381994,20 L101.617587,20 C100.553583,20 99.7684103,18.8120733 100.062178,17.6173144 C100.623291,15.3295417 101.97356,13.4193079 103.755679,12.2891566 C104.741172,13.2136337 106.056232,13.7790439 107.499947,13.7790439 C108.942987,13.7790439 110.258807,13.2136337 111.243521,12.2891566 C113.026333,13.4193079 114.375961,15.3295417 114.937714,17.6173144" transform="translate(-98 -4)"/>
</svg>
