<svg xmlns="http://www.w3.org/2000/svg" width="23" height="23" viewBox="0 0 23 23">
  <path fill="#8B8D9A" d="M0.00035715325,15.5005526 L-5.10536058e-13,15.5002368 C-5.10536058e-13,13.4867112 0.79367389,11.6318615 2.22292183,10.2102521 L3.80872195,8.47413294 C4.44270865,7.84195569 5.43480101,7.84195569 6.07037506,8.47413294 C6.70594911,9.10473133 6.70594911,10.0915215 6.07037506,10.7236988 L4.40397736,12.3811905 C3.57157219,13.2107258 3.13441661,14.3162465 3.13441661,15.4602916 C3.13441661,16.6444398 3.56998484,17.7098574 4.40397736,18.5393927 C5.23796989,19.3673491 6.30911217,19.8021683 7.499623,19.8021683 C8.69013384,19.8021683 9.76127612,19.368928 10.5952686,18.5393927 L12.2616663,16.881901 C12.895653,16.2497237 13.8877454,16.2497237 14.5233195,16.881901 C15.1588935,17.5124993 15.1588935,18.4992895 14.5233195,19.1314668 L12.8569218,20.7889585 C11.4294199,22.2105679 9.52412636,23 7.54010037,23 C5.55607438,23 3.65252693,22.2105679 2.22327898,20.7889585 C0.794031043,19.3690858 0.00035715325,17.5142361 0.00035715325,15.5005526 Z M16.8876131,12.26225 L18.5962749,10.6766854 C19.4286999,9.84262885 19.8658659,8.73108265 19.8658659,7.5808022 C19.8658659,6.39020002 19.4302873,5.31897555 18.5962749,4.48491904 C17.7622626,3.65244999 16.6910948,3.21526087 15.5005556,3.21526087 C14.3100164,3.21526087 13.2388486,3.65086253 12.4048362,4.48491904 L10.7383989,6.1514446 C10.1043971,6.78706741 9.11228107,6.78706741 8.47669189,6.1514446 C7.8411027,5.51740925 7.8411027,4.52524077 8.47669189,3.88961795 L10.1431293,2.22309239 C11.5706651,0.793734787 13.476004,-1.88737914e-15 15.4600773,-1.88737914e-15 C17.4441505,-1.88737914e-15 19.3477433,0.793734787 20.7770252,2.22309239 C22.2063072,3.65070378 23,5.51566303 23,7.54032173 C23,9.52449995 22.2063072,11.4281935 20.7770252,12.8575511 L19.1105879,14.5240766 C18.7927933,14.8418722 18.3959469,15 17.9991005,15 C17.6022541,15 17.2053998,14.8418801 16.8876131,14.5240766 C16.2520239,13.8900413 16.2520239,12.8978728 16.8876131,12.26225 Z M13.2287524,7.48725081 L13.2287931,7.4872127 C13.8808514,6.83785995 14.8986746,6.83785995 15.5109563,7.48562906 C16.1630146,8.13335763 16.1630146,9.14695391 15.5109563,9.79630423 L9.76961911,15.5137981 C9.44358998,15.8384571 9.03646069,16 8.6293314,16 C8.22220212,16 7.81506469,15.8384652 7.4890437,15.5137981 C6.83698543,14.8660696 6.83698543,13.8524733 7.4890437,13.203123 L13.2287524,7.48725081 Z" opacity=".413"/>
</svg>
