<svg xmlns="http://www.w3.org/2000/svg" width="33" height="33" viewBox="0 0 33 33">
  <g fill="#D0D1D6" fill-rule="evenodd">
    <path d="M16.5,0.292085106 C7.49696809,0.292085106 0.174126957,7.61492553 0.174126957,16.6179574 C0.174126957,25.6209894 7.49696809,32.9438308 16.5,32.9438308 C25.5030319,32.9438308 32.8258723,25.6195851 32.8258723,16.6179574 C32.8258723,7.61492553 25.5030319,0.292085106 16.5,0.292085106 Z M16.5,30.9539986 C8.59544681,30.9539986 2.1639578,24.5239149 2.1639578,16.6179574 C2.1639578,8.71340426 8.59544681,2.28331915 16.5,2.28331915 C24.4045532,2.28331915 30.8360426,8.71340426 30.8360426,16.6179574 C30.8360426,24.5225106 24.4045532,30.9539986 16.5,30.9539986 Z"/>
    <path d="M23.6459515,10.3830118 L18.5843099,8.04488572 C18.5236139,8.01745509 18.4600247,8.00249389 18.3971644,8 L18.374765,8 L18.3523657,8 C18.2895016,8.00249389 18.2266358,8.01662308 18.1652202,8.04488572 L13.1035786,10.3830118 C12.892589,10.4810948 12.7560174,10.7146648 12.7560174,10.9748207 L12.7560174,14.1300567 L11.675764,13.6296619 C11.625906,13.6063871 11.57388,13.5930878 11.5225773,13.5914259 L11.5189628,13.5914259 L11.5001761,13.5914259 L11.4835574,13.5914259 L11.4799447,13.5914259 C11.4279187,13.5939198 11.376616,13.6063871 11.326758,13.6296619 L8.29047603,15.0327504 C8.11488815,15.1133783 8,15.3095464 8,15.5281445 L8,23.4653888 C8,23.7588036 8.20738246,23.999851 8.46461737,23.999851 C8.72185227,23.999851 8.92923473,23.7612932 8.92923473,23.4653888 L8.92851146,15.8881836 L11.0369276,14.9156738 L11.0369276,23.4655377 C11.0369276,23.7589526 11.24431,24 11.5015449,24 L11.5037129,24 L11.5058809,24 L14.541423,24 C14.7964936,24 15.0060403,23.7614422 15.0060403,23.4655377 L15.0060403,15.5282935 C15.0060403,15.3113551 14.8911503,15.1151848 14.7155643,15.0328993 L13.8701446,14.6438997 L13.8694213,11.4071655 L17.8226553,9.58183973 L17.8226553,23.3599305 C17.8226553,23.7132029 18.0704931,23.9982977 18.377599,23.9982977 L18.3797669,23.9982977 L18.3819349,23.9982977 L23.4450563,23.9982977 C23.7521621,23.9982977 24,23.7132029 24,23.3599305 L24,10.9758208 C23.9949426,10.7156436 23.8562067,10.4787668 23.6459274,10.3831607 L23.6459515,10.3830118 Z"/>
  </g>
</svg>
