<svg xmlns="http://www.w3.org/2000/svg" width="30" height="30" viewBox="0 0 30 30">
  <path fill="#D0D1D6" fill-rule="evenodd" d="M12.2149804,6.1579107 C11.6149804,5.50432321 11.2505404,4.63861785 11.2505404,3.68874996 C11.2505404,1.65188122 12.9298504,-5.74560017e-08 15.0005404,-5.74560017e-08 C17.0712304,-5.74560017e-08 18.7505404,1.65188122 18.7505404,3.68874996 C18.7505404,4.63861785 18.3861004,5.5042937 17.7861004,6.1579107 C19.7232004,6.30200213 21.2502004,7.89392499 21.2502004,9.83633222 L21.2502004,17.2138323 L19.8099604,17.2138323 L18.5595604,24.5913323 L11.4414604,24.5913323 L10.1910604,17.2138323 L8.75082037,17.2138323 L8.75082037,9.83633222 C8.75082037,7.89398401 10.2777604,6.3019195 12.2149204,6.1579107 L12.2149804,6.1579107 Z M15.0005404,4.91872677 C15.6907804,4.91872677 16.2509404,4.36771605 16.2509404,3.68874996 C16.2509404,3.00978388 15.6907804,2.45877316 15.0005404,2.45877316 C14.3103004,2.45877316 13.7501404,3.00978388 13.7501404,3.68874996 C13.7501404,4.36771605 14.3103004,4.91872677 15.0005404,4.91872677 Z M18.7505404,14.755 L18.7505404,9.8362732 C18.7505404,9.15730711 18.1903804,8.60744728 17.5001404,8.60744728 L12.5009404,8.60744728 C11.8107004,8.60744728 11.2505404,9.15730711 11.2505404,9.8362732 L11.2505404,14.755 L12.3099004,14.755 L13.5591304,22.1325001 L16.4419504,22.1325001 L17.6911804,14.755 L18.7505404,14.755 Z M5.89494037,18.4945072 L6.60627037,20.8518546 C3.94377037,21.6287939 2.49987007,22.6881734 2.49987007,23.4212903 C2.49987007,25.0835296 8.06847037,27.0513154 15.0002704,27.0513154 C21.9320704,27.0513154 27.5006704,25.0835886 27.5006704,23.4212903 C27.5006704,22.6881439 26.0569204,21.6287939 23.3942704,20.8518546 L24.1056004,18.4945072 C27.7314004,19.5527063 30.0000004,21.2172769 30.0000004,23.4212018 C30.0000004,27.127363 23.2560004,29.5100002 15.0000004,29.5100002 C6.74400037,29.5100002 0,27.127304 0,23.4212018 C0,21.2171589 2.26875007,19.5527359 5.89440037,18.4945072 L5.89494037,18.4945072 Z"/>
</svg>
