<svg xmlns="http://www.w3.org/2000/svg" width="22" height="20" viewBox="0 0 22 20">
  <path fill="#D0D0DB" fill-rule="evenodd" d="M107.103234,621.131548 C108.482517,622.036973 111.074434,623.230911 114.572857,623.121168 C114.572857,623.121168 112.665049,621.301995 109.724301,620.569571 C114.449218,620.598671 118,618.012015 118,618.012015 C114.291918,617.410895 111.277933,618.078529 109.286063,618.82349 C114.272999,615.558434 115.863591,610.208126 115.863591,610.208126 C112.206109,611.98739 109.863561,614.381821 108.413768,616.393854 C108.797908,613.432316 108.69651,609.454652 106.938235,605 C106.938235,605 104.339608,610.075098 105.182534,616.225067 C103.725041,614.249602 101.410653,611.938138 97.8554707,610.207913 C97.8554707,610.207913 99.3799967,615.336222 104.124559,618.615326 C102.148001,617.964316 99.3593828,617.467129 96,618.011717 C96,618.011717 99.4478224,620.523511 104.070439,620.568422 C101.127954,621.300079 99.2192435,623.12087 99.2192435,623.12087 C102.752866,623.232282 105.299353,622.005089 106.632107,621.147064 C106.632107,621.147064 106.36054,623.494968 107.15203,625 L107.519846,624.933486 C107.519846,624.933486 106.757594,622.745218 107.103058,621.13142 L107.103234,621.131548 Z" transform="translate(-96 -605)"/>
</svg>
