<svg xmlns="http://www.w3.org/2000/svg" width="20" height="17" viewBox="0 0 20 17">
  <g fill="#FFF" fill-rule="evenodd">
    <path d="M6.45428571 4.53442308C6.5616 4.63062782 6.72386813 4.62211256 6.82773626 4.52165346 7.67767033 3.68817397 8.78257143 3.20373936 9.99828571 3.14075218 12.4253187 3.03263 14.5167473 4.72768038 14.9477363 7.03484192 14.9769253 7.19149256 14.8532989 7.33537141 14.6936264 7.34304321L13.6325055 7.39157167C13.3921099 7.4026391 13.2856703 7.69635115 13.463378 7.85641269L16.5403011 10.6317717C16.6510505 10.7313808 16.8210264 10.7228677 16.9214879 10.6130412L19.7100593 7.55740013C19.8714593 7.38116897 19.7366725 7.0993591 19.4971473 7.1112809L18.0720044 7.17853769C17.6719385 3.05037103 14.0636527-.0852571795 9.84057582.108717179 7.83593846.214287179 5.96870769 1.04179923 4.56936703 2.47215308 4.46376923 2.58027526 4.47321319 2.75566077 4.58482198 2.85611333L6.45428571 4.53442308zM.27043956 9.34280769L1.61316484 9.34280769C1.74966813 9.34280769 1.86213187 9.44497115 1.87843956 9.57947821 2.10421978 11.4184205 2.93013187 13.1296449 4.26415385 14.4517218 5.85756044 16.02505 7.96789011 16.8992859 10.2085495 16.8992859 12.3574066 16.9146099 14.3861319 16.1219936 15.9520659 14.6635679 16.0628154 14.5605523 16.0628154 14.3851821 15.9554989 14.2796077L13.8487077 12.1903731C12.8863121 13.1472987 11.5873912 13.6810987 10.209367 13.6810987 8.84174066 13.6810987 7.5574989 13.1345269 6.57442418 12.1699295 5.87558901 11.4769179 5.41372088 10.6051231 5.21881758 9.66787821 5.18533626 9.50526885 5.31668791 9.35457692 5.48494945 9.35457692L6.6242022 9.35457692C6.8645978 9.35457692 6.98477363 9.06681923 6.81479341 8.8982359L3.64160659 5.74299231C3.53686813 5.63827449 3.36602418 5.63827449 3.26041978 5.74214013L.0795417582 8.88626833C-.0904450549 9.05483859.0297483516 9.34260936.270132967 9.34260936L.27043956 9.34280769z"/>
  </g>
</svg>
