<svg xmlns="http://www.w3.org/2000/svg" width="45" height="45" viewBox="0 0 45 45">
  <g fill="none" fill-rule="evenodd">
    <path fill="#55ACEE" d="M0,22.5 C0,10.0735925 10.0735925,0 22.5,0 C34.9264075,0 45,10.0735925 45,22.5 C45,34.9264075 34.9264075,45 22.5,45 C10.0735925,45 0,34.9264075 0,22.5 Z"/>
    <path fill="#FFF" d="M21.8261275,18.2882818 L21.8733423,19.0668326 L21.0864281,18.9714999 C18.2220602,18.6060577 15.7196729,17.366732 13.5950045,15.2853003 L12.5562776,14.2525289 L12.2887268,15.0151909 C11.7221485,16.7152915 12.0841291,18.5107249 13.2645005,19.718273 C13.8940319,20.3856023 13.7523873,20.480935 12.6664456,20.0837152 C12.2887268,19.9566049 11.9582228,19.8612721 11.9267463,19.9089385 C11.8165783,20.0201601 12.1942971,21.46604 12.4933245,22.0380365 C12.9025199,22.8324761 13.736649,23.6110268 14.6494695,24.0718018 L15.4206455,24.437244 L14.507825,24.4531328 C13.626481,24.4531328 13.5950045,24.4690216 13.6894342,24.8026862 C14.0041999,25.8354576 15.2475244,26.9317842 16.6324934,27.4084479 L17.6082671,27.7421125 L16.7583997,28.2505538 C15.4993369,28.9814382 14.0199381,29.3945468 12.5405394,29.4263244 C11.8323165,29.4422131 11.25,29.5057683 11.25,29.5534347 C11.25,29.7123226 13.1700708,30.6020949 14.287489,30.9516483 C17.6397437,31.9844197 21.6215298,31.5395336 24.6118039,29.7758778 C26.7364724,28.5206633 28.8611408,26.0261231 29.8526528,23.6110268 C30.3877545,22.3240348 30.9228561,19.9724937 30.9228561,18.8443895 C30.9228561,18.1135051 30.970071,18.0181724 31.8514149,17.1442889 C32.3707783,16.6358476 32.8586652,16.0797399 32.9530949,15.920852 C33.1104777,15.6189649 33.0947395,15.6189649 32.2920869,15.8890744 C30.9543327,16.3657381 30.7654733,16.302183 31.4264813,15.5871874 C31.9143681,15.078746 32.4966846,14.1571962 32.4966846,13.8870867 C32.4966846,13.8394203 32.2606104,13.9188643 31.9930595,14.0618634 C31.7097704,14.2207513 31.080239,14.4590832 30.6080904,14.6020823 L29.7582231,14.8721918 L28.9870471,14.3478617 C28.5621134,14.0618634 27.9640586,13.7440876 27.6492929,13.6487549 C26.8466403,13.4263118 25.6190541,13.4580894 24.895093,13.71231 C22.9278074,14.4273056 21.6844829,16.2704054 21.8261275,18.2882818 Z"/>
  </g>
</svg>
