<svg xmlns="http://www.w3.org/2000/svg" width="33" height="33" viewBox="0 0 33 33">
  <g fill="#D0D1D6" fill-rule="evenodd">
    <path d="M16.5,0.292085106 C7.49696809,0.292085106 0.174126957,7.61492553 0.174126957,16.6179574 C0.174126957,25.6209894 7.49696809,32.9438308 16.5,32.9438308 C25.5030319,32.9438308 32.8258723,25.6195851 32.8258723,16.6179574 C32.8258723,7.61492553 25.5030319,0.292085106 16.5,0.292085106 Z M16.5,30.9539986 C8.59544681,30.9539986 2.1639578,24.5239149 2.1639578,16.6179574 C2.1639578,8.71340426 8.59544681,2.28331915 16.5,2.28331915 C24.4045532,2.28331915 30.8360426,8.71340426 30.8360426,16.6179574 C30.8360426,24.5225106 24.4045532,30.9539986 16.5,30.9539986 Z"/>
    <path d="M20.0831998,23.9877514 L18.5825998,23.9836498 L18.5825998,20.8606505 L20.8607998,20.8606505 L20.8607998,18.5824505 L23.9849998,18.5824505 L23.9849998,24 L22.7849998,23.9958984 C22.1252398,23.9935547 20.9099998,23.9900391 20.0843998,23.9876954 L20.0831998,23.9877514 Z M9.00014992,21.2831015 L9.00014963,18.5825015 L12.1243498,18.5825015 L12.1243498,20.8607015 L14.4176998,20.8607015 L14.4176998,23.9849013 L9.00014963,23.9849013 L9.00014992,21.2831015 Z M17.8384498,19.3026515 L17.2812298,19.297964 L17.2812298,18.143669 L18.1355248,18.1354655 L18.1437283,17.2811705 L19.2980233,17.2811705 L19.2980233,19.3144205 L18.8468533,19.3103195 C18.5984233,19.307975 18.1448983,19.3044605 17.8384483,19.302116 L17.8384498,19.3026515 Z M13.6858498,18.2901515 L13.6858498,17.2817465 L14.8565548,17.2817465 L14.8647583,18.1360415 L15.7190533,18.144245 L15.7190533,19.29854 L13.6858033,19.29854 L13.6858498,18.2901515 Z M13.6858498,14.7030515 L13.6852633,13.6858715 L15.7185148,13.6858715 L15.7185148,14.8577465 L14.8560148,14.8577465 L14.8560148,15.7202465 L13.6841398,15.7202465 L13.6858498,14.7030515 Z M18.1394998,15.2930915 L18.1353988,14.8659365 L17.2811038,14.857733 L17.2805173,14.271203 L17.2805173,13.685858 L19.2972673,13.685858 L19.2972673,15.719108 L18.1429723,15.719108 L18.1394998,15.2930915 Z M9,11.7088415 L9,8.99999154 L14.4175498,8.99999154 L14.4175498,12.1241915 L12.1241998,12.1241915 L12.1241998,14.4175415 L9,14.4175415 L9,11.7088415 Z M20.8598998,13.2709415 L20.8598998,12.1236815 L18.5816998,12.1236815 L18.5816998,8.99948154 L23.9828998,8.99948154 L23.9834863,11.7089315 L23.9834863,14.4177815 L20.8592863,14.4177815 L20.8598998,13.2709415 Z"/>
  </g>
</svg>
