<svg xmlns="http://www.w3.org/2000/svg" width="33" height="33" viewBox="0 0 33 33">
  <g fill="#D0D1D6" fill-rule="evenodd">
    <path d="M16.5,0.292085106 C7.49696809,0.292085106 0.174126957,7.61492553 0.174126957,16.6179574 C0.174126957,25.6209894 7.49696809,32.9438308 16.5,32.9438308 C25.5030319,32.9438308 32.8258723,25.6195851 32.8258723,16.6179574 C32.8258723,7.61492553 25.5030319,0.292085106 16.5,0.292085106 Z M16.5,30.9539986 C8.59544681,30.9539986 2.1639578,24.5239149 2.1639578,16.6179574 C2.1639578,8.71340426 8.59544681,2.28331915 16.5,2.28331915 C24.4045532,2.28331915 30.8360426,8.71340426 30.8360426,16.6179574 C30.8360426,24.5225106 24.4045532,30.9539986 16.5,30.9539986 Z"/>
    <path d="M10,7 L10,26 L24,26 L24,10.5348837 L20.9375,10.5348837 C20.7008125,10.5322944 20.5025594,10.3079221 20.5,10.0930233 L20.5,7 L10,7 Z M21.3333333,7.45238095 L21.3333333,9.71428571 L23.5555556,9.71428571 L21.3333333,7.45238095 Z M16.8888889,10.6190476 C17.625,10.6190476 18.2222222,11.2269345 18.2222222,11.9761905 C18.2222222,12.7254464 17.625,13.3333333 16.8888889,13.3333333 C16.1527778,13.3333333 15.5555556,12.7254464 15.5555556,11.9761905 C15.5555556,11.2269345 16.1527778,10.6190476 16.8888889,10.6190476 Z M17,13.7857143 C18.2820513,13.7857143 19.7777778,14.2380952 19.7777778,16.047619 L14.2222222,16.047619 C14.2222222,14.2380952 15.7179487,13.7857143 17,13.7857143 Z M12.6565657,17.6309524 L21.3434343,17.6309524 C21.5835177,17.6309524 21.7777778,17.8332865 21.7777778,18.0833333 C21.7777778,18.3333801 21.5835112,18.5357143 21.3434343,18.5357143 L12.6565657,18.5357143 C12.4164823,18.5357143 12.2222222,18.3333801 12.2222222,18.0833333 C12.2222222,17.8332865 12.4164888,17.6309524 12.6565657,17.6309524 Z M12.6565657,20.3452381 L21.3434343,20.3452381 C21.5835177,20.3452381 21.7777778,20.5475723 21.7777778,20.797619 C21.7777778,21.0476658 21.5835112,21.25 21.3434343,21.25 L12.6565657,21.25 C12.4164823,21.25 12.2222222,21.0476658 12.2222222,20.797619 C12.2222222,20.5475723 12.4164888,20.3452381 12.6565657,20.3452381 Z M12.6565657,22.8333333 L21.3434343,22.8333333 C21.5835177,22.8333333 21.7777778,23.0356675 21.7777778,23.2857143 C21.7777778,23.5357611 21.5835112,23.7380952 21.3434343,23.7380952 L12.6565657,23.7380952 C12.4164823,23.7380952 12.2222222,23.5357611 12.2222222,23.2857143 C12.2222222,23.0356675 12.4164888,22.8333333 12.6565657,22.8333333 Z"/>
  </g>
</svg>
