<svg xmlns="http://www.w3.org/2000/svg" width="22" height="20" viewBox="0 0 22 20">
  <g fill="#D0D0DB" transform="translate(0 1)">
    <path d="M17.1877475 10.6880584L17.1877475 9.35803432C17.1877475 8.22745001 16.2944018 7.36363636 15.125165 7.36363636L2.0625825 7.36363636C.893345734 7.36363636-2.29261055e-14 8.22745001-2.29261055e-14 9.35803432L-2.29261055e-14 16.005602C-2.29261055e-14 17.0688555.893345734 18 2.0625825 18L15.125165 18C16.2944018 18 17.1877475 17.0688555 17.1877475 16.005602L17.1877475 14.6755779 22 18 22 7.36363636 17.1877475 10.6880584zM8.14814815 2.86363636C8.14814815 4.44579927 6.68963398 5.72727273 4.88888889 5.72727273 3.08949965 5.72727273 1.62962963 4.44579927 1.62962963 2.86363636 1.62962963 1.28266473 3.08949965-3.83582055e-14 4.88888889-3.83582055e-14 6.68963398-3.83582055e-14 8.14814815 1.28266473 8.14814815 2.86363636M16.2962963 2.86363636C16.2962963 4.44579927 14.8377821 5.72727273 13.037037 5.72727273 11.2376478 5.72727273 9.77777778 4.44579927 9.77777778 2.86363636 9.77777778 1.28266473 11.2376478-3.83582055e-14 13.037037-3.83582055e-14 14.8377821-3.83582055e-14 16.2962963 1.28266473 16.2962963 2.86363636"/>
  </g>
</svg>
