<svg xmlns="http://www.w3.org/2000/svg" width="49" height="46" viewBox="0 0 49 46">
  <g fill="none" fill-rule="evenodd" stroke-width="2.066">
    <path fill="#F7F8FA" stroke="#595C74" d="M37.1666667 42.3114754L37.1666667 17.147541C37.1666667 16.5952562 37.6143819 16.147541 38.1666667 16.147541L41.6333333 16.147541C42.1856181 16.147541 42.6333333 16.5952562 42.6333333 17.147541L42.6333333 42.3114754M26.2333333 42.3114754L26.2333333 24.0327869C26.2333333 23.4805021 26.6810486 23.0327869 27.2333333 23.0327869L30.7 23.0327869C31.2522847 23.0327869 31.7 23.4805021 31.7 24.0327869L31.7 42.3114754M15.3 42.3114754L15.3 30.9180328C15.3 30.365748 15.7477153 29.9180328 16.3 29.9180328L19.7666667 29.9180328C20.3189514 29.9180328 20.7666667 30.365748 20.7666667 30.9180328L20.7666667 42.3114754M4.36666667 42.3114754L4.36666667 37.8032787C4.36666667 37.2509939 4.81438192 36.8032787 5.36666667 36.8032787L8.83333333 36.8032787C9.38561808 36.8032787 9.83333333 37.2509939 9.83333333 37.8032787L9.83333333 42.3114754"/>
    <path stroke="#595C74" d="M44,42.3114754 L3,42.3114754"/>
    <path stroke="#9CCC65" stroke-linecap="round" stroke-linejoin="round" d="M39.9,2.37704918 L7.1,28.5409836"/>
    <polyline stroke="#9CCC65" stroke-linecap="round" stroke-linejoin="round" points="33.067 1 39.9 2.377 39.285 9.262"/>
  </g>
</svg>
