<svg xmlns="http://www.w3.org/2000/svg" width="22" height="20" viewBox="0 0 22 20">
  <g fill="#D0D0DB">
    <path d="M11,12 C4.90739236,12 0,13.7592628 0,16 C0,18.2392014 4.90739236,20 11,20 C17.0926076,20 22,18.2407372 22,16 C22,13.7593012 17.0926076,12 11,12 Z M11,17 C6.6343619,17 3.14285714,16.3252159 3.14285714,15.5 C3.14285714,14.6747841 6.6343619,14 11,14 C15.3656381,14 18.8571429,14.6747841 18.8571429,15.5 C18.8571429,16.3252159 15.3656381,17 11,17 Z"/>
    <path d="M11,0 C7.66624,0 5,2.57107591 5,5.78584653 C5,9.00061716 11,18 11,18 C11,18 17,8.99938284 17,5.78584653 C17,2.57107591 14.33376,0 11,0 Z M11,8.60869565 C9.46020163,8.60869565 8.2,7.37588971 8.2,5.86956522 C8.2,4.36324073 9.46020163,3.13043478 11,3.13043478 C12.5397984,3.13043478 13.8,4.36324073 13.8,5.86956522 C13.8,7.37588971 12.5397984,8.60869565 11,8.60869565 Z"/>
  </g>
</svg>
