<svg xmlns="http://www.w3.org/2000/svg" width="54" height="54" viewBox="0 0 54 54">
  <path fill="#02DE75" fill-rule="evenodd" d="M28.1408451,0 C29.2862535,0.142985915 30.4375292,0.250225352 31.5751147,0.439496982 C32.5874245,0.608016097 33.5844145,0.867368209 34.7163501,1.11465996 C31.5917384,10.5631388 28.4897264,19.9432757 25.3597907,29.4079437 L37.0004306,29.4079437 C36.4983501,31.6660563 36.0147404,33.8415936 35.5277626,36.0319074 L15.9095734,36.0319074 C19.1908612,25.9406439 22.4611751,15.8836056 25.7339879,5.81841851 C18.9512837,5.84460362 9.50541247,10.7643622 6.4802173,21.0841207 C3.45589135,31.4007284 8.78385513,42.5722093 18.6975815,46.6870744 C28.7714608,50.8684346 40.1087445,46.9303461 45.4895131,37.6231147 C51.2755533,27.6148612 48.0029577,13.8357344 36.7460765,8.01025352 C37.4800201,6.31484909 38.2153763,4.61629376 38.9782213,2.85385111 C39.5622254,3.17546076 40.1075493,3.44937223 40.6271227,3.7655493 C47.642668,8.03502616 51.9690785,14.1942857 53.5220402,22.2612555 C53.7804145,23.6036499 53.8019276,24.9915694 53.9347002,26.3583018 C53.9502374,26.5184547 53.9779437,26.6775211 54,26.8370221 L54,27.1629779 C53.9779437,27.3406237 53.953497,27.5179437 53.9340483,27.6956982 C53.7628129,29.2575694 53.7083783,30.8428008 53.4012193,32.3774004 C52.2751509,38.0042656 49.5860161,42.7964668 45.3981368,46.7185835 C41.641497,50.2369497 37.2315332,52.522008 32.1614004,53.4815131 C31.0107767,53.6990342 29.8436378,53.8295252 28.6841046,54 L25.3158954,54 C25.1762777,53.9704467 25.0377465,53.9237264 24.8968249,53.9137304 C21.7825352,53.6944708 18.7880885,52.9696539 15.9647686,51.6437746 C7.6966841,47.7613159 2.54788732,41.3478109 0.555428571,32.4307485 C0.280756539,31.2018954 0.180796781,29.9339276 0,28.6841046 L0,25.3158954 C0.166454728,24.1375654 0.274128773,22.9473924 0.509142857,21.7828612 C1.7139839,15.8113521 4.5956499,10.7833763 9.15924748,6.74923944 C12.9560885,3.39309054 17.3684427,1.27416097 22.3729497,0.429501006 C23.4911952,0.240772636 24.6242173,0.140812877 25.750503,0 L28.1408451,0 Z"/>
</svg>
