<svg xmlns="http://www.w3.org/2000/svg" width="22" height="20" viewBox="0 0 22 20">
  <g fill="#D0D0DB">
    <path d="M8.18652083 12.2931818C9.04410833 13.6523864 10.9965625 13.6364091 11 13.6364091 11.0026856 13.6364091 12.9559833 13.6523891 13.8125625 12.2931818 14.6522521 10.9606136 15.7327271 8.55477273 15.8499917 6.92477273 15.9672608 5.29568182 15.636044 2.88704545 14.9449667 1.8875 13.6469438.0116136364 11.0026125.0195909091 10.9998625.0195909091 10.9962818.0195909091 8.35275833.0116006818 7.055675 1.8875 6.36370625 2.88713636 6.03249167 5.29568182 6.14975625 6.92477273 6.26702542 8.55386364 7.346625 10.9606818 8.18629167 12.2931818L8.18652083 12.2931818zM7.06475 12.8284091C6.10958333 12.9873227 4.750625 13.2749545 3.21727083 13.7916591 2.00878333 14.2000455 1.10643958 15.2866818.659770833 16.5021136.358095833 17.3233182.193370833 18.1045682.101177083 18.7189091.0832734375 18.8369841.0698454167 18.9470682.0573122917 19.0509318.0814825 19.5676136.507578958 19.9804318 1.03395187 19.9804318L8.24101438 19.9804318 7.06475 12.8284091zM11.7250833 14.7211364C11.3553688 14.7779545 11.0832333 14.7832818 11.003575 14.7832818L10.9999943 14.7832818 10.9964135 14.7832818C10.9158477 14.7832818 10.6445969 14.7779552 10.2740115 14.7211364L9.52564479 19.9804545 12.4743323 19.9804545 11.7250833 14.7211364zM21.8980208 18.7188636C21.8067117 18.1045227 21.6419958 17.3232727 21.3403208 16.5020682 20.8945229 15.2857955 19.9912854 14.1991136 18.7819042 13.7916136 17.2493521 13.2749318 15.8905083 12.9872727 14.9353417 12.8283636L13.7581812 19.9804091 20.9643271 19.9804091C21.4915937 19.9804091 21.9177063 19.5675909 21.9418604 19.0509091 21.9293277 18.94615 21.9150044 18.8360659 21.8979956 18.7188864L21.8980208 18.7188636z"/>
  </g>
</svg>
