<svg xmlns="http://www.w3.org/2000/svg" width="22" height="20" viewBox="0 0 22 20">
  <path fill="#D0D0DB" d="M20.8989111,12.856749 C19.5235405,12.4672148 17.3247444,11.8176387 16.6368928,11.6881749 C16.4998306,11.6881749 16.4998306,11.5587026 16.4998306,11.4281159 L16.4998306,3.37627553 C16.4998306,3.11621652 16.4998306,2.98674132 16.2245206,2.85727756 C16.2245206,2.85727756 12.9244056,0.909635093 11.8242665,0.260059014 C11.8242665,0.260059014 11.5489564,0 10.99951,0 C10.5871317,0 10.3118398,0.129469479 10.1747535,0.260059014 C9.21176118,1.03801309 5.77449939,2.98565555 5.77449939,2.98565555 C5.63743723,3.11624223 5.49918934,3.24571457 5.49918934,3.50576787 L5.49918934,11.5587511 C5.49918934,11.6882235 5.49918934,11.6882235 5.36212719,11.8188102 C4.81269283,11.9482796 2.74965214,12.4672719 1.37537054,12.8568061 C0.138266044,13.1168651 0,13.7664526 0,14.2854506 L0,18.7008193 C0,19.6104658 0.549434352,20 1.37537054,20 L20.6246295,20 C22,20 22,18.9608897 22,18.1818213 L22,14.2853363 C21.9988182,13.5062679 21.449386,13.1167623 20.8987719,12.8566918 L20.8989111,12.856749 Z M10.9994737,18.1818784 C10.9994737,18.4419375 10.7241636,18.7008764 10.4500393,18.7008764 L7.42518603,18.7008764 C7.14987598,18.7008764 6.87457198,18.4419346 6.87457198,18.1818784 L6.87457198,3.76599832 C6.87457198,3.63652884 7.01163414,3.5059393 7.14988203,3.37646411 L10.449997,1.68774917 C10.5870591,1.55827684 11.1376671,1.68774917 11.1376671,1.94780819 L11.1364856,18.1817813 L10.9994737,18.1818784 Z M20.6233469,17.9218194 C20.6233469,18.1818784 20.4862848,18.4408174 20.0739126,18.3113536 L17.1861154,17.5322852 C16.636681,17.4028157 16.4996249,17.2722262 16.4996249,16.8827091 L16.4996249,16.2331331 C16.4996249,15.8435989 16.774935,15.7141351 17.1872951,15.8435989 L20.2121484,16.7532454 C20.4874584,16.8827149 20.6245266,17.0133044 20.6245266,17.5323138 L20.6233469,17.9218194 Z M20.6233469,15.0645304 C20.6233469,15.3245895 20.4862848,15.5835284 20.0739126,15.4540647 L17.0490593,14.8056029 C16.636681,14.6761334 16.4996249,14.5455439 16.4996249,14.1560268 L16.4996249,13.5064508 C16.4996249,13.1169166 16.774935,12.9874528 17.1872951,13.1169166 L20.2121484,14.0265631 C20.4874584,14.1560326 20.6245266,14.2866221 20.6245266,14.8056315 L20.6233469,15.0645304 Z"/>
</svg>
