<svg xmlns="http://www.w3.org/2000/svg" width="18" height="17" viewBox="0 0 18 17">
  <path fill="#FFF" fill-rule="evenodd" d="M619.568937,10.6451978 C619.624837,10.0971495 619.624837,9.60359017 619.624837,9 L608.375122,9 C608.375122,9.60359017 608.375122,10.0971495 608.431023,10.6451978 L605,10.6451978 L605,11.1932461 C605,16.0743506 611.356856,19.5292659 612.875664,20.296323 L612.874609,22.1615561 C612.874609,23.0941858 612.14369,23.8067539 611.187043,23.8067539 L610.06164,23.8067539 L610.06164,26 L617.937304,26 L617.937304,23.8067539 L616.811901,23.8067539 C615.855254,23.8067539 615.124336,23.0941858 615.124336,22.1615561 L615.124336,20.2973496 C616.643144,19.5292396 623,16.0743242 623,11.1942727 L623,10.6462244 L619.568937,10.6451978 Z M606.2,11.637931 L608.573913,11.637931 C608.799646,14.1441259 609.421739,15.9266654 610.1,17.2068966 C608.290943,15.8149225 606.425725,13.8653034 606.2,11.637931 Z M617.9,17.2068966 C618.578261,15.9255961 619.200362,14.1441259 619.426087,11.637931 L621.8,11.637931 C621.51703,13.8653034 619.651812,15.8149225 617.9,17.2068966 Z" transform="translate(-605 -9)"/>
</svg>
