<svg xmlns="http://www.w3.org/2000/svg" width="33" height="33" viewBox="0 0 33 33">
  <g fill="#D0D1D6" fill-rule="evenodd">
    <path d="M16.5,0.292085106 C7.49696809,0.292085106 0.174126957,7.61492553 0.174126957,16.6179574 C0.174126957,25.6209894 7.49696809,32.9438308 16.5,32.9438308 C25.5030319,32.9438308 32.8258723,25.6195851 32.8258723,16.6179574 C32.8258723,7.61492553 25.5030319,0.292085106 16.5,0.292085106 Z M16.5,30.9539986 C8.59544681,30.9539986 2.1639578,24.5239149 2.1639578,16.6179574 C2.1639578,8.71340426 8.59544681,2.28331915 16.5,2.28331915 C24.4045532,2.28331915 30.8360426,8.71340426 30.8360426,16.6179574 C30.8360426,24.5225106 24.4045532,30.9539986 16.5,30.9539986 Z"/>
    <g transform="translate(5 7)">
      <path d="M15.932675,2.68933824 C17.0108,4.4935 18.2091,6.53125 19.16705,8.10294118 C16.1123625,9.26752941 14.3154875,11.0138529 12.6387875,12.6433824 C11.0216,14.2150735 9.6436125,15.5542941 7.068475,16.3685 C6.22955,14.9714412 4.9717375,12.8180147 3.8341,10.9548971 C6.8887875,9.79030882 8.6856625,8.04398529 10.3623625,6.41445588 C11.97955,4.84276471 13.3563875,3.44570588 15.932675,2.68933824 Z M17.1298537,0.0120147059 C8.38582875,1.58370588 8.98440375,7.92830882 0.23922875,9.5 C0.23922875,9.5 5.86905375,18.9879853 5.86905375,18.9879853 C14.6142287,17.4162941 14.0156538,11.0716912 22.7608287,9.5 L17.1298537,0.0120147059 Z"/>
      <path d="M13.7517,8.27310294 C14.8770038,10.1667603 14.8129775,12.2482941 13.6101954,12.9239118 C12.4062891,13.5984397 10.5195704,12.6117529 9.39429537,10.7180956 C8.27011287,8.82443824 8.33413913,6.74290441 9.53692125,6.06728676 C10.7397062,5.39275882 12.6275462,6.37944559 13.7516712,8.27310294"/>
    </g>
  </g>
</svg>
