<svg xmlns="http://www.w3.org/2000/svg" width="45" height="45" viewBox="0 0 45 45">
  <g fill="none" fill-rule="evenodd">
    <path fill="#0077B5" d="M0,22.5 C0,10.0735925 10.0735925,0 22.5,0 C34.9264075,0 45,10.0735925 45,22.5 C45,34.9264075 34.9264075,45 22.5,45 C10.0735925,45 0,34.9264075 0,22.5 Z"/>
    <path fill="#FFF" d="M15.9005081,18.6354828 L15.9005081,33.9558373 L10.8015161,33.9558373 L10.8015161,18.6354828 L15.9005081,18.6354828 Z M16.2363406,13.8962791 C16.2363406,15.3673154 15.1290506,16.5443885 13.3511139,16.5443885 L13.3185286,16.5443885 C11.606679,16.5443885 10.5,15.3673154 10.5,13.8962791 C10.5,12.394128 11.6403845,11.25 13.3847175,11.25 C15.1290506,11.25 16.2032461,12.394128 16.2363406,13.8962791 Z M34.289424,25.1716142 L34.2892203,33.9558373 L29.190432,33.9558373 L29.190432,25.759439 C29.190432,23.7006796 28.4525781,22.2958384 26.6067214,22.2958384 C25.1980171,22.2958384 24.3589451,23.2429064 23.9904254,24.1576394 C23.8556037,24.4854628 23.8225092,24.9422192 23.8225092,25.4000941 L23.8225092,33.956244 L18.7229062,33.956244 C18.7229062,33.956244 18.7901134,20.0734724 18.7229062,18.6358895 L23.8225092,18.6358895 L23.8225092,20.8058892 C24.4992656,19.7627316 25.7113378,18.2757312 28.4185671,18.2757312 C31.7739389,18.2757312 34.289424,20.465864 34.289424,25.1716142 Z"/>
  </g>
</svg>
