<svg xmlns="http://www.w3.org/2000/svg" width="72" height="72" viewBox="0 0 72 72">
  <path fill="#42434B" fill-rule="evenodd" d="M38.2759474,0 C38.8525514,0.0906881288 39.4304602,0.172684105 40.0053243,0.273657948 C42.0641064,0.634961771 44.1218735,1.00249497 46.3546371,1.39885714 C42.152837,14.0946157 38.006131,26.6240644 33.8324579,39.2355091 L49.368578,39.2355091 C48.707013,42.2099638 48.0609614,45.1148813 47.4094004,48.0447163 L21.2283624,48.0447163 C25.6082037,34.5860765 29.9793459,21.1545272 34.3545476,7.71037425 C23.2184217,8.03864789 10.7497418,16.3709457 8.01953591,30.7629779 C5.33659497,44.9048209 13.7726718,58.9287404 27.3881802,63.1479115 C41.2492926,67.442994 56.0168491,60.8375372 61.9252635,47.7625111 C67.8857274,34.5724588 63.1540084,18.2358471 49.0291689,10.7136579 C49.5148675,9.5778833 49.9996962,8.43356137 50.4929339,7.29300604 C50.9857368,6.15375453 51.4870937,5.01797988 52.0638426,3.69952515 C53.873106,4.85543662 55.6842543,5.86459557 57.3333097,7.09163783 C64.5146893,12.4345594 69.2806247,19.462165 71.110186,28.2205231 C73.6774292,40.5109376 70.6892956,51.4429135 62.1486848,60.7016499 C56.8241236,66.4738189 50.1759975,69.9916781 42.4406315,71.4137143 C41.3046768,71.6226157 40.1471193,71.7134487 39.0007257,71.8670101 C38.8999614,71.8804829 38.8073162,71.9542213 38.7109014,72 L33.0565001,72 C32.8884628,71.9475573 32.7237603,71.8720805 32.5518085,71.8462938 C31.4091845,71.675493 30.2545267,71.5675654 29.1230665,71.3428732 C21.6553422,69.859992 15.2589094,66.3886358 9.99625662,60.8889658 C4.78985786,55.4481127 1.60222536,48.9911469 0.428429639,41.5484909 C0.292724007,40.6876781 0.143099849,39.829328 0,38.9698189 L0,33.0301811 C0.0482798882,32.9347123 0.131211108,32.8422857 0.139910187,32.7431952 C0.436403795,29.389328 1.12319608,26.1099235 2.43211749,23.0133441 C7.97096605,9.91006841 17.7710584,2.27372233 31.9073517,0.271050302 C32.4849706,0.189199195 33.0601247,0.0906881288 33.6364387,0 L38.2759474,0 Z"/>
</svg>
