<svg xmlns="http://www.w3.org/2000/svg" width="21" height="22" viewBox="0 0 21 22">
  <path fill="#8D8E95" fill-rule="evenodd" d="M19.7193679,9.18949443e-05 L1.53657412,9.18949443e-05 C0.80931359,9.18949443e-05 0,0.560849747 0,1.36609782 L0,13.2876041 C0,14.0928522 0.80931359,14.65361 1.53657412,14.65361 L4.09753099,14.65361 L4.09753099,18.130716 C4.09753099,18.4819286 4.31561184,18.7991648 4.6507489,18.9330583 C4.76178943,18.9776869 4.87783406,19 4.9938659,19 C5.22695395,19 5.45604179,18.9117138 5.62811248,18.7458236 L9.84677673,14.6535182 L19.7195216,14.6535182 C20.335739,14.6535182 21,14.2256603 21,13.2875122 L21,1.36600593 C21,0.427857894 20.335739,0 19.7195216,0 L19.7193679,9.18949443e-05 Z M18.9989,12.9469477 L9.4999,12.9469477 C9.2674775,12.9469477 9.0458,13.0362716 8.88075,13.1959034 L6,16 L6,13.7982721 C6,13.3278981 5.6084,12.9468504 5.125,12.9468504 L2,12.9468504 L2,2 L19,2 L18.9989,12.9469477 Z M4.85714286,6 L15.1428571,6 C15.6163918,6 16,5.55245714 16,5 C16,4.44754286 15.6163918,4 15.1428571,4 L4.85714286,4 C4.38360816,4 4,4.44754286 4,5 C4,5.55245714 4.38360816,6 4.85714286,6 Z M4.875,10 L10.125,10 C10.6084,10 11,9.55245714 11,9 C11,8.44754286 10.6084,8 10.125,8 L4.875,8 C4.3916,8 4,8.44754286 4,9 C4,9.55245714 4.3916,10 4.875,10 Z" transform="translate(0 3)"/>
</svg>
