<svg xmlns="http://www.w3.org/2000/svg" width="49" height="46" viewBox="0 0 49 46">
  <g fill="none" fill-rule="evenodd" stroke-linecap="round" stroke-width="2.25">
    <circle cx="24.5" cy="28.25" r="5.25" stroke="#9CCC65"/>
    <path fill="#FFF" stroke="#9CCC65" d="M24.5,33.5 C19.546424,33.5407722 15.5407722,37.546424 15.5,42.5 L15.5,44 L33.5,44 L33.5,42.5 C33.4592278,37.546424 29.453576,33.5407722 24.5,33.5 Z"/>
    <circle cx="39.5" cy="6.5" r="4.5" stroke="#595C74"/>
    <path fill="#EBECF1" stroke="#595C74" d="M47,20 C47,14.375 43.625,11 39.5,11 C35.375,11 32,14.375 32,20 L47,20 Z"/>
    <circle cx="9.5" cy="6.5" r="4.5" stroke="#595C74"/>
    <path fill="#EBECF1" stroke="#595C74" d="M17,20 C17,14.375 13.625,11 9.5,11 C5.375,11 2,14.375 2,20 L17,20 Z"/>
    <path stroke="#595C74" d="M9.5,24.5 L15.5,30.5 M39.5,24.5 L33.5,30.5 M18.5,9.5 L30.5,9.5"/>
  </g>
</svg>
