<svg xmlns="http://www.w3.org/2000/svg" width="33" height="33" viewBox="0 0 33 33">
  <g fill="#D0D1D6" fill-rule="evenodd">
    <path d="M16.5,0.292085106 C7.49696809,0.292085106 0.174126957,7.61492553 0.174126957,16.6179574 C0.174126957,25.6209894 7.49696809,32.9438308 16.5,32.9438308 C25.5030319,32.9438308 32.8258723,25.6195851 32.8258723,16.6179574 C32.8258723,7.61492553 25.5030319,0.292085106 16.5,0.292085106 Z M16.5,30.9539986 C8.59544681,30.9539986 2.1639578,24.5239149 2.1639578,16.6179574 C2.1639578,8.71340426 8.59544681,2.28331915 16.5,2.28331915 C24.4045532,2.28331915 30.8360426,8.71340426 30.8360426,16.6179574 C30.8360426,24.5225106 24.4045532,30.9539986 16.5,30.9539986 Z"/>
    <g transform="translate(9 7)">
      <polygon points="3.134 .419 .275 3.096 3.134 3.096"/>
      <path d="M4.27741176,0.186647059 L4.27741176,4.26214706 L0.273411765,4.26214706 L0.273411765,18.8144706 L13.998902,18.8144706 L13.9999753,0.186647059 L4.27741176,0.186647059 Z M11.1401569,15.3207059 L3.13435294,15.3207059 L3.13435294,14.1561176 L11.1412549,14.1561176 L11.1401569,15.3207059 Z M11.1401569,12.4109118 L3.13435294,12.4109118 L3.13435294,11.2463235 L11.1412549,11.2463235 L11.1401569,12.4109118 Z M11.1401569,9.5 L3.13435294,9.5 L3.13435294,8.33541176 L11.1412549,8.33541176 L11.1401569,9.5 Z"/>
    </g>
  </g>
</svg>
