<svg xmlns="http://www.w3.org/2000/svg" xmlns:xlink="http://www.w3.org/1999/xlink" width="45" height="45" viewBox="0 0 45 45">
  <defs>
    <path id="icon-instagram-a" d="M0,22.5 C0,10.0735925 10.0735925,0 22.5,0 C34.9264075,0 45,10.0735925 45,22.5 C45,34.9264075 34.9264075,45 22.5,45 C10.0735925,45 0,34.9264075 0,22.5 Z"/>
    <linearGradient id="icon-instagram-c" x1="66.814%" x2="98.343%" y1="-10.507%" y2="111.451%">
      <stop offset="0%" stop-color="#4E60D3"/>
      <stop offset="14.276%" stop-color="#913BAF"/>
      <stop offset="76.146%" stop-color="#D52D88"/>
      <stop offset="100%" stop-color="#F26D4F"/>
    </linearGradient>
    <radialGradient id="icon-instagram-d" cx="30.274%" cy="100%" r="93.395%" fx="30.274%" fy="100%" gradientTransform="matrix(.63513 .39934 -.1991 .6598 .31 .22)">
      <stop offset="0%" stop-color="#FED276"/>
      <stop offset="17.024%" stop-color="#FDBD61" stop-opacity=".975"/>
      <stop offset="45.408%" stop-color="#F6804D"/>
      <stop offset="100%" stop-color="#E83D5C" stop-opacity="0"/>
    </radialGradient>
  </defs>
  <g fill="none" fill-rule="evenodd">
    <mask id="icon-instagram-b" fill="#fff">
      <use xlink:href="#icon-instagram-a"/>
    </mask>
    <use fill="#517FA4" xlink:href="#icon-instagram-a"/>
    <g mask="url(#icon-instagram-b)">
      <path fill="url(#icon-instagram-c)" d="M34.2773438,2.91887589e-14 C40.78125,2.91887589e-14 45,4.21875 45,10.7226563 L45,34.2773438 C45,40.78125 40.78125,45 34.2773438,45 L10.7226562,45 C4.21875,45 0,40.78125 0,34.2773438 L0,10.7226563 C0,4.21875 4.21875,2.91887589e-14 10.7226562,2.91887589e-14 L34.2773438,2.91887589e-14 Z"/>
      <path fill="url(#icon-instagram-d)" d="M44.6580178,37.327271 C43.5316988,42.0692229 39.6982734,45 34.2773438,45 L10.7226562,45 C4.21875,45 0,40.78125 0,34.2773438 L0,15.6929737 C3.57831701,14.6379766 7.44104876,14.0625 11.4697266,14.0625 C28.3558079,14.0625 42.3264796,24.1727148 44.6580178,37.327271 L44.6580178,37.327271 Z"/>
    </g>
    <path fill="#FFF" d="M22.501125,10.5 C19.2420911,10.5 18.8330868,10.5142501 17.5530735,10.5725008 C16.2755602,10.6310014 15.4035511,10.8332535 14.6405431,11.1300066 C13.8512849,11.4365098 13.1817779,11.846514 12.514771,12.513771 C11.847264,13.1807779 11.4372598,13.8502849 11.1297566,14.6392931 C10.8322535,15.4025511 10.6297514,16.2748102 10.5722508,17.5518235 C10.5150002,18.8318368 10.5,19.2410911 10.5,22.500125 C10.5,25.7591589 10.5145002,26.1669132 10.5725008,27.4469265 C10.6312514,28.7244398 10.8335035,29.5964489 11.1300066,30.3594569 C11.4367598,31.1487151 11.846764,31.8182221 12.514021,32.485229 C13.1807779,33.152736 13.8502849,33.5637402 14.6390431,33.8702434 C15.4025511,34.1669965 16.2748102,34.3692486 17.5520735,34.4277492 C18.8320868,34.4859999 19.2408411,34.50025 22.499625,34.50025 C25.7589089,34.50025 26.1666632,34.4859999 27.4466765,34.4277492 C28.7241898,34.3692486 29.5971989,34.1669965 30.3607069,33.8702434 C31.1497151,33.5637402 31.8182221,33.152736 32.484979,32.485229 C33.152486,31.8182221 33.5624902,31.1487151 33.8699934,30.3597069 C34.1649965,29.5964489 34.3674986,28.7241898 34.4274992,27.4471765 C34.4849998,26.1671632 34.5,25.7591589 34.5,22.500125 C34.5,19.2410911 34.4849998,18.8320868 34.4274992,17.5520735 C34.3674986,16.2745602 34.1649965,15.4025511 33.8699934,14.6395431 C33.5624902,13.8502849 33.152486,13.1807779 32.484979,12.513771 C31.8174721,11.846264 31.1499651,11.4362598 30.3599569,11.1300066 C29.5949489,10.8332535 28.7224398,10.6310014 27.4449265,10.5725008 C26.1649132,10.5142501 25.7574089,10.5 22.497375,10.5 L22.501125,10.5 Z M21.4246138,12.6625225 C21.7441171,12.6620225 22.1006208,12.6625225 22.501125,12.6625225 C25.7051584,12.6625225 26.0849123,12.6740226 27.3501755,12.7315232 C28.5201877,12.7850238 29.1551943,12.9805258 29.5781987,13.1447775 C30.1382046,13.3622798 30.5374587,13.6222825 30.9572131,14.0422869 C31.3772175,14.4622913 31.6372202,14.8622954 31.8552225,15.4223013 C32.0194742,15.8448057 32.2152262,16.4798123 32.2684768,17.6498245 C32.3259774,18.9148377 32.3384775,19.2948416 32.3384775,22.497375 C32.3384775,25.6999083 32.3259774,26.0799123 32.2684768,27.3449255 C32.2149762,28.5149377 32.0194742,29.1499443 31.8552225,29.5724487 C31.6377202,30.1324545 31.3772175,30.5312087 30.9572131,30.950963 C30.5372087,31.3709674 30.1384546,31.6309701 29.5781987,31.8484724 C29.1556943,32.0134741 28.5201877,32.2084761 27.3501755,32.2619767 C26.0851623,32.3194773 25.7051584,32.3319774 22.501125,32.3319774 C19.2968416,32.3319774 18.9170877,32.3194773 17.6520745,32.2619767 C16.4820623,32.2079761 15.8470557,32.0124741 15.4238013,31.8482224 C14.8637955,31.6307201 14.4637913,31.3707174 14.0437869,30.950713 C13.6237825,30.5307087 13.3637798,30.1317045 13.1457776,29.5714487 C12.9815258,29.1489443 12.7857738,28.5139376 12.7325233,27.3439255 C12.6750227,26.0789123 12.6635225,25.6989083 12.6635225,22.4943749 C12.6635225,19.2898416 12.6750227,18.9118376 12.7325233,17.6468244 C12.7860238,16.4768123 12.9815258,15.8418056 13.1457776,15.4188012 C13.3632798,14.8587954 13.6237825,14.4587912 14.0437869,14.0387869 C14.4637913,13.6187825 14.8637955,13.3587798 15.4238013,13.1407775 C15.8468057,12.9757758 16.4820623,12.7807738 17.6520745,12.7270232 C18.759086,12.6770227 19.1880905,12.6620225 21.4246138,12.6595225 L21.4246138,12.6625225 Z M28.9066917,14.6550433 C28.1116835,14.6550433 27.4666767,15.2993 27.4666767,16.0945583 C27.4666767,16.8895666 28.1116835,17.5345733 28.9066917,17.5345733 C29.7017,17.5345733 30.3467067,16.8895666 30.3467067,16.0945583 C30.3467067,15.29955 29.7017,14.6545433 28.9066917,14.6545433 L28.9066917,14.6550433 Z M22.501125,16.3375608 C19.0978396,16.3375608 16.3385608,19.0968396 16.3385608,22.500125 C16.3385608,25.9034105 19.0978396,28.6614392 22.501125,28.6614392 C25.9044105,28.6614392 28.6626892,25.9034105 28.6626892,22.500125 C28.6626892,19.0968396 25.9041605,16.3375608 22.500875,16.3375608 L22.501125,16.3375608 Z M22.501125,18.5000833 C24.710148,18.5000833 26.5011667,20.290852 26.5011667,22.500125 C26.5011667,24.709148 24.710148,26.5001667 22.501125,26.5001667 C20.291852,26.5001667 18.5010833,24.709148 18.5010833,22.500125 C18.5010833,20.290852 20.291852,18.5000833 22.501125,18.5000833 L22.501125,18.5000833 Z" mask="url(#icon-instagram-b)"/>
  </g>
</svg>
