<svg xmlns="http://www.w3.org/2000/svg" width="49" height="46" viewBox="0 0 49 46">
  <g fill="none" fill-rule="evenodd">
    <g transform="translate(4 2)">
      <path fill="#595C74" d="M38.6386304,12.3886304 L22.764,12.3886304 L22.764,3.36182609 C22.764,1.70159348 21.4158457,0.249991304 19.6521652,0.249991304 L3.36164348,0.249991304 C1.59796487,0.249991304 0.249810522,1.70159348 0.249810522,3.36182609 L0.249810522,38.6386304 C0.249810522,40.4023113 1.59796487,41.7504657 3.36164348,41.7504657 L38.6384524,41.7504657 C40.4021328,41.7504657 41.7502872,40.4023113 41.7502872,38.6386304 L41.7502872,15.5002826 C41.7502872,13.7366022 40.4021328,12.3884478 38.6384524,12.3884478 L38.6386304,12.3886304 Z"/>
      <path fill="#FFF" d="M6.78573913 39.6763034L6.78573913 33.7629783C6.78573913 33.24405 7.20124696 32.7251217 7.82359565 32.7251217L10.4182826 32.7251217 10.4164976 39.6765773 6.78573913 39.6763034zM16.1229783 39.6763034L12.4922152 39.6763034 12.4922152 32.7248478 15.0869022 32.7248478C15.7092783 32.7248478 16.1247587 33.2437761 16.1247587 33.7627043L16.1229783 39.6763034z"/>
      <path fill="#FFF" d="M20.6881957,39.6763034 L18.3021391,39.6763034 L18.3021391,33.7629783 C18.3021391,31.9992978 16.9539848,30.6511435 15.1903043,30.6511435 L7.92704348,30.6511435 C6.16336304,30.6511435 4.8152087,31.9992978 4.8152087,33.7629783 L4.8152087,39.6763034 L3.36182609,39.6763034 C2.84289783,39.6763034 2.3239682,39.2607965 2.3239682,38.6384478 L2.3239682,3.36164348 C2.3239682,2.73926739 2.84289783,2.32378696 3.36182609,2.32378696 L19.6523478,2.32378696 C20.1712761,2.32378696 20.6902043,2.73929478 20.6902043,3.36164348 L20.6881957,39.6763034 Z"/>
      <path fill="#EBECF1" d="M39.6767609,38.6384478 C39.6767609,39.2608239 39.1578326,39.6763034 38.6389043,39.6763034 L22.7642739,39.6763034 L22.7642739,14.4639783 L38.6389043,14.4639783 C39.1578326,14.4639783 39.6767609,14.9829065 39.6767609,15.5018348 L39.6767609,38.6384478 Z"/>
    </g>
    <path fill="#9CCC65" d="M21.1606522 9.30434783L9.7476087 9.30434783C9.12523261 9.30434783 8.70975217 8.88884 8.70975217 8.2664913 8.70975217 7.64411522 9.12526 7.22863478 9.7476087 7.22863478L21.1606522 7.22863478C21.7830283 7.22863478 22.1985087 7.64414261 22.1985087 8.2664913 22.1985087 8.88886739 21.7830009 9.30434783 21.1606522 9.30434783zM21.1606522 14.4918043L9.7476087 14.4918043C9.12523261 14.4918043 8.70975217 14.0762965 8.70975217 13.4539478 8.70975217 12.8315717 9.12526 12.4160913 9.7476087 12.4160913L21.1606522 12.4160913C21.7830283 12.4160913 22.1985087 12.8315991 22.1985087 13.4539478 22.1985087 14.0763239 21.7830009 14.4918043 21.1606522 14.4918043zM21.1606522 19.6797174L9.7476087 19.6797174C9.12523261 19.6797174 8.70975217 19.2642096 8.70975217 18.6418609 8.70975217 18.0195122 9.12526 17.6040043 9.7476087 17.6040043L21.1606522 17.6040043C21.7830283 17.6040043 22.1985087 18.0195122 22.1985087 18.6418609 22.1985087 19.2642096 21.7830009 19.6797174 21.1606522 19.6797174zM21.1606522 24.8671739L9.7476087 24.8671739C9.12523261 24.8671739 8.70975217 24.4516661 8.70975217 23.8293174 8.70975217 23.2069413 9.12526 22.7914609 9.7476087 22.7914609L21.1606522 22.7914609C21.7830283 22.7914609 22.1985087 23.2069687 22.1985087 23.8293174 22.1985087 24.4534739 21.7830009 24.8671739 21.1606522 24.8671739z"/>
    <path fill="#B9BABD" d="M40.8746304 21.7550652L29.461587 21.7550652C28.8392109 21.7550652 28.4237304 21.3395574 28.4237304 20.7172087 28.4237304 20.09486 28.8392383 19.6793522 29.461587 19.6793522L40.8746304 19.6793522C41.4970065 19.6793522 41.912487 20.09486 41.912487 20.7172087 41.912487 21.3395574 41.4969791 21.7550652 40.8746304 21.7550652zM40.8746304 26.9429783L29.461587 26.9429783C28.8392109 26.9429783 28.4237304 26.5274704 28.4237304 25.9051217 28.4237304 25.282773 28.8392383 24.8672652 29.461587 24.8672652L40.8746304 24.8672652C41.4970065 24.8672652 41.912487 25.282773 41.912487 25.9051217 41.912487 26.5274704 41.4969791 26.9429783 40.8746304 26.9429783zM40.8746304 32.1304348L29.461587 32.1304348C28.8392109 32.1304348 28.4237304 31.714927 28.4237304 31.0925783 28.4237304 30.4702022 28.8392383 30.0547217 29.461587 30.0547217L40.8746304 30.0547217C41.4970065 30.0547217 41.912487 30.4702296 41.912487 31.0925783 41.912487 31.7149543 41.4969791 32.1304348 40.8746304 32.1304348z"/>
  </g>
</svg>
