<svg xmlns="http://www.w3.org/2000/svg" width="19" height="16" viewBox="0 0 19 16">
  <g fill="#C6C6CD" fill-rule="evenodd">
    <path d="M6.13157143 4.26769231C6.23352 4.35823795 6.38767473 4.35022359 6.48634945 4.25567385 7.29378681 3.47122256 8.34344286 3.0152841 9.49837143 2.95600205 11.8040527 2.85424 13.7909099 4.44958154 14.2003495 6.62102769 14.228079 6.76846359 14.110634 6.90387897 13.9589451 6.91109949L12.9508802 6.95677333C12.7225044 6.96718974 12.6213868 7.24362462 12.7902091 7.39427077L15.713286 10.0063733C15.818498 10.1001231 15.9799751 10.0921108 16.0754135 9.98874462L18.7245564 7.11284718C18.8778864 6.94698256 18.7498389 6.68174974 18.5222899 6.69297026L17.1684042 6.75627077C16.7883415 2.87093744 13.3604701-.0802420513 9.34854703.102322051 7.44414154.201682051 5.67027231.980516923 4.34089868 2.32673231 4.24058077 2.42849436 4.24955253 2.59356308 4.35558088 2.68810667L6.13157143 4.26769231zM.256917582 8.79323077L1.53250659 8.79323077C1.66218473 8.79323077 1.76902527 8.88938462 1.78451758 9.01597949 1.99900879 10.7467487 2.78362527 12.3573128 4.05094615 13.6016205 5.56468242 15.0824 7.5694956 15.9052103 9.69812198 15.9052103 11.7395363 15.9196328 13.6668253 15.173641 15.1544626 13.8010051 15.2596746 13.7040492 15.2596746 13.5389949 15.157724 13.4396308L13.1562723 11.4732923C12.2419965 12.3739282 11.0080216 12.8763282 9.69889868 12.8763282 8.39965363 12.8763282 7.17962396 12.3619077 6.24570297 11.4540513 5.58180956 10.8018051 5.14303484 9.98129231 4.9578767 9.09917949 4.92606945 8.94613538 5.05085352 8.80430769 5.21070198 8.80430769L6.29299209 8.80430769C6.52136791 8.80430769 6.63553495 8.53347692 6.47405374 8.37481026L3.45952626 5.40516923C3.36002473 5.30661128 3.19772297 5.30661128 3.09739879 5.40436718L.0755646703 8.36354667C-.0859228022 8.52220103.0282609341 8.7930441.256626319 8.7930441L.256917582 8.79323077z"/>
  </g>
</svg>
