<svg xmlns="http://www.w3.org/2000/svg" xmlns:xlink="http://www.w3.org/1999/xlink" width="38" height="35"> <defs> <circle id="a" cx="30.5" cy="5.5" r="5.5"/> </defs> <g fill="none" fill-rule="evenodd"> <path fill="#C7C8CD" d="M17 31.472c1.587 0 3.136-.15 4.647-.493L29.164 35l-.642-7.016c.265-.19.529-.38.794-.608C32.34 24.911 34 21.65 34 18.236 34 10.915 26.37 5 17 5 7.63 5 0 10.917 0 18.235c0 7.283 7.63 13.237 17 13.237zm5.364-12.933c0-1.138.906-2.047 2.04-2.047 1.133 0 2.04.91 2.04 2.047a2.034 2.034 0 0 1-2.04 2.047c-1.132-.037-2.04-.946-2.04-2.047zm-3.324 0A2.034 2.034 0 0 1 17 20.586c-1.133 0-2.04-.91-2.04-2.047 0-1.138.907-2.047 2.04-2.047s2.04.91 2.04 2.047zm-9.445-2.047c1.133 0 2.04.91 2.04 2.047a2.034 2.034 0 0 1-2.04 2.047c-1.133 0-2.04-.91-2.04-2.047.04-1.138.945-2.047 2.04-2.047z"/> <g stroke-linecap="square" transform="translate(0 2)"> <use fill="#00ADFF" xlink:href="#a"/> <circle cx="30.5" cy="5.5" r="6.5" stroke="#FFF" stroke-width="2"/> </g> </g></svg>