<svg xmlns="http://www.w3.org/2000/svg" width="33" height="33" viewBox="0 0 33 33">
  <g fill="#D0D1D6" fill-rule="evenodd">
    <path d="M16.5,0.292085106 C7.49696809,0.292085106 0.174126957,7.61492553 0.174126957,16.6179574 C0.174126957,25.6209894 7.49696809,32.9438308 16.5,32.9438308 C25.5030319,32.9438308 32.8258723,25.6195851 32.8258723,16.6179574 C32.8258723,7.61492553 25.5030319,0.292085106 16.5,0.292085106 Z M16.5,30.9539986 C8.59544681,30.9539986 2.1639578,24.5239149 2.1639578,16.6179574 C2.1639578,8.71340426 8.59544681,2.28331915 16.5,2.28331915 C24.4045532,2.28331915 30.8360426,8.71340426 30.8360426,16.6179574 C30.8360426,24.5225106 24.4045532,30.9539986 16.5,30.9539986 Z"/>
    <g transform="translate(9 7)">
      <path d="M11.2455769 3.84470455C11.2455769 5.92295455 9.56888462 7.60730682 7.5 7.60730682 5.43111538 7.60730682 3.75442308 5.92299318 3.75442308 3.84470455 3.75442308 1.76645455 5.43111538.0821022727 7.5.0821022727 9.56888462.0821022727 11.2455769 1.76641591 11.2455769 3.84470455M14.0136538 9.98209091C13.5028462 8.8380875 11.2401923 8.14611023 9.52365385 7.77711364L7.5 9.02978182 5.47634615 7.77711364C3.75984615 8.14612955 1.49730769 8.83810682.986346154 9.98209091.13975 11.8799477.00978846154 16.9177047.00978846154 16.9177047L14.9909423 16.9177047C14.9909423 16.9177047 14.8602327 11.8791364 14.0136346 9.98209091L14.0136538 9.98209091zM7.5 15.8613864L6.62634615 14.4434705 7.02298077 10.9542205 7.97851923 10.9542205 8.37515385 14.4434705 7.5 15.8613864zM8.01982692 10.5616364L6.98092308 10.5616364 6.62634615 9.32784205 8.37438462 9.32784205 8.01982692 10.5616364z"/>
    </g>
  </g>
</svg>
