<svg xmlns="http://www.w3.org/2000/svg" width="26" height="22" viewBox="0 0 26 22">
  <g fill="#353744" fill-rule="evenodd">
    <path d="M17.5795455 4.25164865L17.5795455 2.94401622C17.5795455 1.42732432 16.3388727.178913514 14.8315818.178913514L11.1685364.178913514C9.66124545.178913514 8.42057273 1.42732432 8.42057273 2.94401622L8.42057273 4.25164865 9.24808182 4.25164865 9.24808182 2.94401622C9.24808182 1.87327027 10.1044273.981378378 11.1985545.981378378L14.8616.981378378C15.9257091.981378378 16.8120727 1.84306486 16.8120727 2.94401622L16.8120727 4.25164865 17.5795455 4.25164865zM.0300181818 19.0573514C.0300181818 20.5740432 1.27069091 21.8224541 2.77798182 21.8224541L23.1944818 21.8224541C24.7017727 21.8224541 25.9424455 20.5740432 25.9424455 19.0573514L25.9412902 8.77027027 16.5756766 12.7534595 16.5756766 14.9529838C16.5756766 16.1723784 15.5716039 17.1827135 14.3597675 17.1827135L11.6706584 17.1827135C10.458822 17.1827135 9.45474932 16.1723784 9.45474932 14.9529838L9.45474932 12.7534595.0303405227 8.77027027.0300181818 19.0573514z"/>
    <path d="M0.0888727273,7.61140541 L9.54341818,11.5945946 C9.80886636,10.6724973 10.6663818,9.98966486 11.6704545,9.98966486 L14.3595636,9.98966486 C15.3636364,9.98966486 16.2211636,10.6736865 16.4866,11.5945946 L25.9411455,7.61140541 C25.7045514,6.30377297 24.5815818,5.32245405 23.2232,5.32245405 L2.77685909,5.32129459 C1.44731364,5.32129459 0.325501386,6.30261351 0.0889013864,7.61140541 L0.0888727273,7.61140541 Z"/>
    <path d="M11.6403182,11.0894865 C11.0193909,11.0894865 10.5173545,11.5946541 10.5173545,12.2194541 L10.5173545,14.9253351 C10.5173545,15.5501351 11.0193909,16.0553027 11.6403182,16.0553027 L14.3294273,16.0553027 C14.9503545,16.0553027 15.4523909,15.5501351 15.4523909,14.9253351 L15.4523909,12.2194541 C15.4523909,11.5946541 14.9503545,11.0894865 14.3294273,11.0894865 L11.6403182,11.0894865 Z"/>
  </g>
</svg>
