<svg xmlns="http://www.w3.org/2000/svg" width="21" height="22" viewBox="0 0 21 22">
  <g fill="#8D8E95" fill-rule="evenodd">
    <path d="M13.3739326 21.8486297C13.2034173 21.8383545 13.0329067 21.8327498 12.862382 21.8159358 12.2513056 21.7598884 11.6383652 21.7215917 11.0309697 21.637523 10.2677966 21.5319684 9.50740787 21.4021278 8.7506764 21.2563969 7.85017753 21.0826543 6.9588809 20.8603491 6.10349663 20.518465 5.82974157 20.4091752 5.56429213 20.2737389 5.30806854 20.1261476 4.96888315 19.9318541 4.81588989 19.6226585 4.81681011 19.2266107 4.81865292 16.2056759 4.81865292 13.1847411 4.81681011 10.1647628 4.81681011 9.81166283 4.94584921 9.53238239 5.22236966 9.31565848 6.31182135 8.46095848 7.44643483 7.67443457 8.64654944 6.98600196 9.78116292 6.33398891 10.8153067 5.54842152 11.6983921 4.56958891 11.879044 4.36875761 12.0403382 4.15204326 12.205318 3.93720848 12.4781292 3.58131065 12.6200798 3.163765 12.7454427 2.73782587 12.8726366 2.30346935 13.0127326 1.87284326 13.2228742 1.46931065 13.4486902 1.03775196 13.7445472.671595435 14.1805213.43992587 14.438609.302612391 14.7151011.229751739 15.0045236.206400652 15.0312526.204530652 15.0579816.196125217 15.0847106.191455L15.3999229.191455C15.4220437.196125217 15.4423217.203598043 15.4644425.205465652 16.0469683.262445652 16.5225593.52492 16.8930796.980774348 17.3032402 1.48519609 17.4792863 2.08302217 17.5382751 2.72193087 17.6027946 3.40943087 17.5272158 4.08664826 17.3668396 4.75453957 17.0940283 5.88574609 16.6018261 6.91513087 15.9594148 7.87543087 15.9363715 7.90905739 15.9151733 7.9426863 15.8893645 7.98098543 15.9124079 7.98752326 15.9225445 7.99126087 15.9326835 7.99406348 16.6654419 8.18461935 17.3981767 8.37143522 18.1300149 8.5657287 18.5788722 8.68529391 19.0194475 8.83195261 19.4185419 9.08323087 20.1171812 9.52318304 20.6019981 10.1247635 20.7992565 10.9458417 20.8333591 11.0859578 20.8508717 11.2307417 20.8748353 11.37367L20.8748353 11.8108243C20.8702271 11.8267026 20.8628535 11.8425833 20.8610107 11.8575289 20.8296735 12.2124941 20.7310513 12.5487593 20.580814 12.8701028 20.2840298 13.500618 19.8323882 14.0003767 19.2978084 14.4300463 19.2554097 14.4646078 19.2194643 14.515985 19.2001089 14.5673598 19.0535596 14.9568793 18.9143909 15.3491967 18.7678392 15.7377837 18.2821021 17.0221772 17.7696313 18.2962402 17.1419673 19.5189141 16.8792785 20.0307967 16.5935606 20.5296228 16.239628 20.9835876 15.9806201 21.3151897 15.6746336 21.5786158 15.2589516 21.674818 14.9925819 21.7364682 14.7225313 21.7738323 14.451537 21.8130641 14.3105161 21.8345485 14.1667392 21.8373502 14.0238684 21.8476256 13.805426 21.8485599 13.5897583 21.8485599 13.3740718 21.8485599L13.3739326 21.8486297zM6.70277528 14.6355L6.70277528 18.426913C6.70277528 18.5240598 6.67420348 18.6454926 6.72028787 18.711813 6.76729483 18.7781335 6.88895798 18.7949491 6.98021596 18.825773 8.24203281 19.2536013 9.54339573 19.5048557 10.8579013 19.6935535 11.5030969 19.78603 12.1528935 19.8495478 12.8026901 19.9046602 13.3400306 19.9504322 13.8792351 19.9504322 14.4184396 19.9065278 14.6645407 19.886912 14.8396665 19.796303 14.9567002 19.573993 15.1779081 19.1517843 15.423089 18.7416996 15.6286294 18.3110974 16.3558429 16.77918 16.9697036 15.1995322 17.5393227 13.6014235 17.6167443 13.3828439 17.7457834 13.2091061 17.933816 13.0764604 18.0600897 12.9858515 18.1845182 12.8924424 18.3015755 12.7896952 18.5541182 12.568313 18.7753261 12.3179626 18.9062103 12.0003735 19.0785684 11.5809626 18.9965363 11.18678 18.6601092 10.887867 18.5412091 10.7823124 18.4048058 10.6861007 18.2600946 10.6244409 18.0324357 10.5272941 17.7946261 10.4469607 17.5549901 10.3862454 16.3844407 10.0891976 15.2129474 9.79963457 14.0404396 9.51098022 13.802644 9.45213261 13.6035452 9.33817022 13.4588575 9.13733891 13.1823418 8.75528022 13.2192216 8.26582804 13.5482633 7.89778239 14.3289442 7.02720413 14.9621531 6.062265 15.3594071 4.95073891 15.5833803 4.32208891 15.7253262 3.67662804 15.6829251 3.00220848 15.6672553 2.749065 15.6110319 2.50620413 15.4995078 2.27546717 15.383373 2.03540413 15.0460257 2.06062283 14.9427954 2.25771891 14.9013192 2.33618239 14.8552348 2.41371326 14.8229751 2.49684935 14.7510819 2.684605 14.6856421 2.8751537 14.6202024 3.06478413 14.4957738 3.42907543 14.3943863 3.80364935 14.2441372 4.15768196 13.9694619 4.80500804 13.5436338 5.35519935 13.0781889 5.87270152 12.1334484 6.91982978 11.0421563 7.78387978 9.83569449 8.49381022 8.78033831 9.11406674 7.75173944 9.77354065 6.77653719 10.5180015 6.72492202 10.5572333 6.70464404 10.5974 6.70464404 10.6627878 6.70280124 11.9845335 6.70280124 13.3099617 6.70280124 14.6354617L6.70277528 14.6355zM.0479224719 14.6859565C.0479224719 13.1278783.0470008315 11.5708043.0488441124 10.0126304.0497659888 9.27749565.50324636 8.67780435 1.19544506 8.49097174 2.06644955 8.25557891 2.97062933 8.86647826 3.08860685 9.77163478 3.09874348 9.85196826 3.10427427 9.93323435 3.10427427 10.0144957 3.10519685 13.1251043 3.10519685 16.2347565 3.10519685 19.3444087 3.10519685 20.134663 2.58165978 20.7651785 1.81574966 20.9015548.997268764 21.0463411.17513009 20.4373065.0672750337 19.6022152.0543713596 19.5050685.0497629213 19.4069867.0497629213 19.3088978.0479194045 17.768563.0479194045 16.2272239.0479194045 14.6860283L.0479224719 14.6859565z"/>
  </g>
</svg>
