<svg xmlns="http://www.w3.org/2000/svg" width="33" height="33" viewBox="0 0 33 33">
  <g fill="#D0D1D6" fill-rule="evenodd">
    <path d="M16.5,0.292085106 C7.49696809,0.292085106 0.174126957,7.61492553 0.174126957,16.6179574 C0.174126957,25.6209894 7.49696809,32.9438308 16.5,32.9438308 C25.5030319,32.9438308 32.8258723,25.6195851 32.8258723,16.6179574 C32.8258723,7.61492553 25.5030319,0.292085106 16.5,0.292085106 Z M16.5,30.9539986 C8.59544681,30.9539986 2.1639578,24.5239149 2.1639578,16.6179574 C2.1639578,8.71340426 8.59544681,2.28331915 16.5,2.28331915 C24.4045532,2.28331915 30.8360426,8.71340426 30.8360426,16.6179574 C30.8360426,24.5225106 24.4045532,30.9539986 16.5,30.9539986 Z"/>
    <path d="M14.3888889,21.8211382 L14.3888889,8.34552846 C14.3888889,8.13767236 14.5290807,8 14.7407407,8 L18.2592593,8 C18.4709193,8 18.6111111,8.13767236 18.6111111,8.34552846 L18.6111111,21.8211382 C18.6111111,22.0289943 18.4709193,22.1666667 18.2592593,22.1666667 L14.7407407,22.1666667 C14.5290807,22.1666667 14.3888889,22.0289943 14.3888889,21.8211382 Z M9.46296296,22.1666667 L12.9814815,22.1666667 C13.1931415,22.1666667 13.3333333,22.0329796 13.3333333,21.8311404 L13.3333333,16.127193 C13.3333333,15.9253538 13.1931415,15.7916667 12.9814815,15.7916667 L9.46296296,15.7916667 C9.25130296,15.7916667 9.11111111,15.9253538 9.11111111,16.127193 L9.11111111,21.8311404 C9.11111111,22.0329796 9.25130296,22.1666667 9.46296296,22.1666667 Z M20.3703704,22.1666667 L23.8888889,22.1666667 C24.1005489,22.1666667 24.2407407,22.0301046 24.2407407,21.8239247 L24.2407407,11.8844086 C24.2407407,11.6782288 24.1005489,11.5416667 23.8888889,11.5416667 L20.3703704,11.5416667 C20.1587104,11.5416667 20.0185185,11.6782288 20.0185185,11.8844086 L20.0185185,21.8239247 C20.0185185,22.0301046 20.1587104,22.1666667 20.3703704,22.1666667 Z M25.3214286,23.5833333 L7.67857143,23.5833333 C7.30481429,23.5833333 7,23.9015308 7,24.2916667 C7,24.6818025 7.30482786,25 7.67857143,25 L25.3214286,25 C25.6951857,25 26,24.6818025 26,24.2916667 C26,23.9015308 25.6951721,23.5833333 25.3214286,23.5833333 Z"/>
  </g>
</svg>
