<svg xmlns="http://www.w3.org/2000/svg" width="33" height="33" viewBox="0 0 33 33">
  <g fill="#8B8D9A" fill-rule="evenodd" opacity=".41">
    <path d="M16.5,0.292085106 C7.49696809,0.292085106 0.174126957,7.61492553 0.174126957,16.6179574 C0.174126957,25.6209894 7.49696809,32.9438308 16.5,32.9438308 C25.5030319,32.9438308 32.8258723,25.6195851 32.8258723,16.6179574 C32.8258723,7.61492553 25.5030319,0.292085106 16.5,0.292085106 Z M16.5,30.9539986 C8.59544681,30.9539986 2.1639578,24.5239149 2.1639578,16.6179574 C2.1639578,8.71340426 8.59544681,2.28331915 16.5,2.28331915 C24.4045532,2.28331915 30.8360426,8.71340426 30.8360426,16.6179574 C30.8360426,24.5225106 24.4045532,30.9539986 16.5,30.9539986 Z"/>
    <path d="M21.180383 10.0548191C21.180383 12.6398074 19.0849532 14.7352021 16.5 14.7352021 13.9150468 14.7352021 11.819617 12.6397723 11.819617 10.0548191 11.819617 7.46986596 13.9150468 5.37443617 16.5 5.37443617 19.0849532 5.37443617 21.180383 7.46986596 21.180383 10.0548191M16.5 15.4289043C11.6440851 15.4289043 7.70830851 19.3646809 7.70830851 24.2205957 7.70830851 29.0765106 25.2916915 29.0765106 25.2916915 24.2205957 25.2916915 19.3646809 21.3559149 15.4289043 16.5 15.4289043z"/>
  </g>
</svg>
