<svg xmlns="http://www.w3.org/2000/svg" width="30" height="30" viewBox="0 0 30 30">
  <path fill="#D0D1D6" fill-rule="evenodd" d="M18.5258397,26.7211196 C16.7223297,26.7211196 15.2468397,25.2457196 15.2468397,23.4421196 C15.2468397,21.6385196 16.7222397,20.1631196 18.5258397,20.1631196 C20.3294397,20.1631196 21.8048397,21.6385196 21.8048397,23.4421196 C21.8048397,25.2457196 20.3294397,26.7211196 18.5258397,26.7211196 M11.9681397,3.76991958 C13.7716497,3.76991958 15.2471397,5.24531958 15.2471397,7.04891958 C15.2471397,8.85242958 13.7717397,10.3279196 11.9681397,10.3279196 C10.1645397,10.3279196 8.68913971,8.85251958 8.68913971,7.04891958 C8.68913971,5.24540958 10.1645397,3.76991958 11.9681397,3.76991958 M28.3616397,21.8026196 L24.9185397,21.8026196 C24.2622897,19.0158896 21.6395397,16.8841196 18.5249397,16.8841196 C15.4100397,16.8841196 12.9515397,19.0157696 12.1313397,21.8026196 L1.63944001,21.8026196 C0.65625001,21.8026196 0,22.4588696 0,23.4420596 C0,24.4252496 0.65625001,25.0814996 1.63944001,25.0814996 L12.1313397,25.0814996 C12.7875897,27.8682299 15.4103397,30 18.5249397,30 C21.6398397,30 24.0983397,27.8683499 24.9185397,25.0814996 L28.3616397,25.0814996 C29.3448297,25.0814996 30.0010797,24.4252496 30.0010797,23.4420596 C30.0010797,22.4588696 29.1819297,21.8026196 28.3616397,21.8026196 M1.64064031,8.68811958 L5.57453971,8.68811958 C6.23078971,11.4748496 8.85353971,13.6066196 11.9681397,13.6066196 C15.0827397,13.6066196 17.5415397,11.4749696 18.3617397,8.68811958 L28.3613397,8.68811958 C29.3445297,8.68811958 30.0007797,8.03186958 30.0007797,7.04867958 C30.0007797,6.06548958 29.3445297,5.40923958 28.3613397,5.40923958 L18.3617397,5.40923958 C17.7054897,2.62250958 15.0827397,0.49073958 11.9681397,0.49073958 C8.85353971,0.49073958 6.39473971,2.62238958 5.57453971,5.40923958 L1.64064031,5.40923958 C0.65745031,5.40923958 0.0012001992,6.06548958 0.0012001992,7.04867958 C0.0012001992,8.03186958 0.65745031,8.68811958 1.64064031,8.68811958"/>
</svg>
