<svg xmlns="http://www.w3.org/2000/svg" width="21" height="22" viewBox="0 0 21 22">
  <path fill="#8D8E95" fill-rule="evenodd" d="M6.65062802,12.3479929 L6.41111826,12.3145702 C6.03461378,12.2077826 5.7762473,11.8662345 5.7762473,11.4782084 C5.7762473,7.57916562 7.38312137,2.95974736 14.8753505,2.62794058 L14.8753505,0.869615026 C14.8753505,0.518275463 15.0877931,0.201180864 15.4150769,0.0658496055 C15.7423607,-0.067837227 16.1188652,0.00552754907 16.3690422,0.254153087 L20.7434656,4.60144804 C21.0855115,4.94137262 21.0855115,5.49079457 20.7434656,5.83071915 L16.3690422,10.1780141 C16.1180462,10.4274535 15.7423607,10.5008266 15.4150769,10.3663176 C15.0877931,10.2318148 14.8753505,9.91389173 14.8753505,9.56255216 L14.8753505,7.84254091 C11.5294373,7.96970638 9.37561329,8.76531854 7.39460759,11.9346159 C7.2321962,12.1946565 6.94756889,12.3446373 6.65062802,12.3446373 L6.65062802,12.3479929 Z M16.6249518,2.96954714 L16.6249518,3.47902707 C16.6249518,3.9591661 16.2336854,4.34881995 15.7497312,4.34881995 C11.5344769,4.34881995 8.96782094,5.7028212 7.9844576,8.46864988 C10.088515,6.56685442 12.5558477,6.11115223 15.7423817,6.08757099 L15.7497648,6.08757099 C15.9810851,6.08757099 16.203376,6.17805407 16.365779,6.34026586 C16.5322914,6.5024839 16.6249854,6.72420178 16.6249854,6.95652914 L16.6249854,7.46600907 L18.88716,5.21786158 L16.6249518,2.96954714 Z M16.1861236,20 L2.18847252,20 C0.98187248,20 0,19.0242376 0,17.8251004 L0,7.39259421 C0,6.19347787 0.981851482,5.21769463 2.18847252,5.21769463 L4.71166147,5.21769463 C5.19479672,5.21769463 5.58688214,5.60734849 5.58688214,6.08748752 C5.58688214,6.56762654 5.19479672,6.9572804 4.71166147,6.9572804 L2.18847252,6.9572804 C1.94732403,6.9572804 1.75046238,7.15292119 1.75046238,7.39257334 L1.75046238,17.8250796 C1.75046238,18.0647319 1.94732403,18.2603727 2.18847252,18.2603727 L16.1861236,18.2603727 C16.4272712,18.2603727 16.6241329,18.0647319 16.6241329,17.8250796 L16.6241329,11.9566905 C16.6241329,11.4757376 17.0153994,11.0868976 17.4993536,11.0868976 C17.9833078,11.0868976 18.3745742,11.4757376 18.3745742,11.9566905 L18.3745742,17.8250796 C18.3745742,19.0241961 17.3927228,19.9999793 16.1861026,19.9999793 L16.1861236,20 Z"/>
</svg>
