<svg xmlns="http://www.w3.org/2000/svg" width="33" height="33" viewBox="0 0 33 33">
  <g fill="#D0D1D6" fill-rule="evenodd">
    <path d="M16.5,0.292085106 C7.49696809,0.292085106 0.174126957,7.61492553 0.174126957,16.6179574 C0.174126957,25.6209894 7.49696809,32.9438308 16.5,32.9438308 C25.5030319,32.9438308 32.8258723,25.6195851 32.8258723,16.6179574 C32.8258723,7.61492553 25.5030319,0.292085106 16.5,0.292085106 Z M16.5,30.9539986 C8.59544681,30.9539986 2.1639578,24.5239149 2.1639578,16.6179574 C2.1639578,8.71340426 8.59544681,2.28331915 16.5,2.28331915 C24.4045532,2.28331915 30.8360426,8.71340426 30.8360426,16.6179574 C30.8360426,24.5225106 24.4045532,30.9539986 16.5,30.9539986 Z"/>
    <path d="M25.0490595,17.5710741 C23.8612395,17.2204933 21.9622793,16.6358748 21.3682256,16.5193574 C21.2498537,16.5193574 21.2498537,16.4028323 21.2498537,16.2853043 L21.2498537,9.03864798 C21.2498537,8.80459486 21.2498537,8.68806719 21.0120859,8.5715498 C21.0120859,8.5715498 18.1619867,6.81867158 17.2118665,6.23405311 C17.2118665,6.23405311 16.9740987,6 16.4995768,6 C16.1434319,6 15.9056798,6.11652253 15.7872871,6.23405311 C14.9556119,6.93421178 11.9870677,8.68709 11.9870677,8.68709 C11.8686958,8.80461801 11.7492999,8.92114311 11.7492999,9.15519108 L11.7492999,16.402876 C11.7492999,16.5194011 11.7492999,16.5194011 11.630928,16.6369291 C11.1564165,16.7534517 9.37469958,17.2205447 8.18782002,17.5711255 C7.11941158,17.8051786 7,18.3898074 7,18.8569055 L7,22.8307373 C7,23.6494192 7.47451149,24 8.18782002,24 L24.81218,24 C26,24 26,23.0648007 26,22.3636392 L26,18.8568027 C25.9989786,18.1556411 25.5244697,17.805086 25.0489394,17.5710226 L25.0490595,17.5710741 Z M16.5123561,22.4883957 C16.5123561,22.7229638 16.2704091,22.9565217 16.0295041,22.9565217 L13.3712127,22.9565217 C13.1292657,22.9565217 12.8873239,22.7229613 12.8873239,22.4883957 L12.8873239,9.48555232 C12.8873239,9.36877337 13.0077764,9.25098415 13.129271,9.13420005 L16.0294669,7.61101203 C16.1499194,7.49423051 16.6338028,7.61101203 16.6338028,7.8455802 L16.6327634,22.488308 L16.5123561,22.4883957 Z M24.6609769,22.3054129 C24.6609769,22.5447864 24.545381,22.783129 24.1975931,22.663963 L21.7620732,21.9468628 C21.2986894,21.8276915 21.1830986,21.7074892 21.1830986,21.3489549 L21.1830986,20.751047 C21.1830986,20.3924969 21.4152905,20.2733309 21.7630681,20.3924969 L24.3141789,21.2297889 C24.5463708,21.3489602 24.6619718,21.4691624 24.6619718,21.9468891 L24.6609769,22.3054129 Z M24.6609769,19.4604874 C24.6609769,19.6847469 24.545381,19.9080405 24.1975931,19.7963986 L21.6464824,19.2372037 C21.2986894,19.1255569 21.1830986,19.0129442 21.1830986,18.6770478 L21.1830986,18.1168919 C21.1830986,17.7809807 21.4152905,17.6693389 21.7630681,17.7809807 L24.3141789,18.565406 C24.5463708,18.6770528 24.6619718,18.7896654 24.6619718,19.2372283 L24.6609769,19.4604874 Z"/>
  </g>
</svg>
