<svg xmlns="http://www.w3.org/2000/svg" width="279" height="55" viewBox="0 0 279 55">
  <g fill="none" fill-rule="evenodd">
    <path fill="#FFF" d="M29.238571 0C29.6790323.0692756539 30.1204904.131911469 30.5596228.209044266 32.1323035.485040241 33.7042089.765794769 35.4097922 1.06857143 32.2000838 10.7667203 29.0324612 20.337827 25.8442387 29.9715694L37.7121082 29.9715694C37.2067461 32.2437223 36.7132344 34.4627565 36.2155142 36.7008249L16.2161102 36.7008249C19.5618222 26.4199195 22.9008892 16.1597082 26.2430572 5.88986922 17.7362943 6.1406338 8.21160835 12.5055835 6.12603438 23.499497 4.07656561 34.3022938 10.5207909 45.0150101 20.9215265 48.2379879 31.5098763 51.5189537 42.7906486 46.4731187 47.3040207 36.4852515 51.8571529 26.4095171 48.2426453 13.930161 37.4528374 8.18404427 37.8238571 7.31643863 38.1942123 6.44230382 38.5709912 5.57104628 38.9474378 4.70078471 39.3304188 3.83317907 39.7709909 2.82602616 41.1530671 3.70901408 42.5365831 4.4798994 43.7962782 5.41722334 49.2820544 9.49862173 52.9226995 14.8669316 54.320281 21.5573441 56.2813695 30.9458551 53.9987675 39.29667 47.4746898 46.3693159 43.4073166 50.7786117 38.328887 53.4658652 32.4199268 54.5521429 31.5521836 54.7117203 30.6679384 54.7811066 29.792221 54.8984105 29.7152483 54.9087022 29.6444776 54.9650302 29.5708274 55L25.2514931 55C25.1231313 54.9599396 24.9973169 54.9022837 24.8659648 54.8825855 23.993127 54.7521127 23.1110968 54.669668 22.2467869 54.4980282 16.5422753 53.3652716 11.6561114 50.7135412 7.63602936 46.5124044 3.6589192 42.3561972 1.22392215 37.4237928.327272641 31.7384306.223608617 31.0808652.109312385 30.4251811 0 29.7686117L0 25.2313883C.0368804702 25.1584608.100230707 25.0878571.106875837 25.012163.33336401 22.4501811.857997005 19.9450805 1.85786753 17.5796378 6.0889324 7.57019115 13.5751141 1.73687123 24.3736715.207052314 24.8149081.144527163 25.2542619.0692756539 25.6945018 0L29.238571 0zM209.161764 33.596709C210.499002 30.9235865 211.797148 28.3269855 213.097071 25.7312769 213.98264 23.962581 214.86521 22.1923233 215.759553 20.4280892 216.404683 19.1554447 217.469942 18.7248716 218.816398 19.1706151 219.91553 19.5344828 220.302564 20.516881 219.750499 21.6323552 219.299496 22.5433631 218.804515 23.432396 218.33019 24.3318029 215.992106 28.7645861 213.657687 33.1993771 211.314494 37.6293715 210.686355 38.8171285 209.657967 39.2479246 208.441004 38.8629745 207.714246 38.6330752 207.314441 38.0655219 206.971275 37.4311517 205.228789 34.2102198 203.481085 30.9920766 201.734601 27.7732641 201.231735 26.846305 200.728646 25.919569 200.221782 24.9948408 200.154259 24.8716925 200.063748 24.7612605 199.958577 24.6082175 198.386009 27.5161473 196.840761 30.3752193 195.293736 33.233399 194.492571 34.7137449 193.707842 36.2034608 192.879578 37.6683016 192.210792 38.8510389 191.403297 39.166495 190.085049 38.8897459 189.371063 38.7398261 189.003798 38.2342932 188.692727 37.6455459 187.448777 35.2907797 186.205271 32.9356789 184.957434 30.5829206 183.423736 27.6913883 181.884152 24.8029793 180.350565 21.9112238 179.734865 20.7501267 179.935434 19.7108393 180.910848 19.2876284 181.941346 18.8405463 183.524687 18.8131056 184.30042 20.4091262 186.345203 24.6169182 188.444848 28.7977157 190.522947 32.9891102 190.605018 33.154535 190.690643 33.3182866 190.814472 33.56146 191.529568 32.2199907 192.216012 30.9321756 192.902678 29.6445837 194.547211 26.5608551 196.206181 23.4848233 197.827725 20.3889361 198.30205 19.4835056 198.993047 19.0322963 199.992116 19.0326309 200.994184 19.032854 201.674742 19.5006839 202.148067 20.4010948 204.410521 24.7049291 206.70185 28.9934814 208.983295 33.2872764 209.026052 33.3680368 209.074473 33.4458969 209.161764 33.596709"/>
    <path fill="#9CCC65" d="M149.988157,30.0333286 C149.887867,30.0157753 149.852557,30.0042107 149.817134,30.0042107 C144.487113,30.0034879 139.157093,29.9883095 133.827298,30.0204217 C133.036261,30.0252747 132.223001,30.1822222 131.462423,30.3954435 C130.438092,30.6824921 130.019109,31.2686702 130.003202,32.1830956 C129.993275,32.7501715 130.009745,33.3174539 130.008166,33.884633 C130.00591,34.6400459 130.399059,35.2238491 131.142827,35.4496675 C132.01836,35.7154456 132.952216,35.9499375 133.864526,35.9621216 C137.902061,36.0162272 141.941176,36.0069342 145.97905,35.9683169 C146.807427,35.9603663 147.655772,35.7986691 148.453803,35.5813175 C149.309819,35.3483745 149.946078,34.800091 149.97665,33.9190169 C150.021324,32.6334934 149.988157,31.3455951 149.988157,30.0333286 Z M150.015219,27.0458478 C150.242163,25.2144539 149.194074,24.3019386 147.191436,24.0519849 C146.0566,23.9103184 144.897643,23.9420231 143.749217,23.9246078 C142.485055,23.905518 141.219873,23.9419115 139.956164,23.9127744 C138.787581,23.88587 138.258043,23.3943353 138.261667,22.4254436 C138.264498,21.6301465 138.6937,21.1395048 139.493102,21.020947 C139.586076,21.0072158 139.681203,20.9986198 139.775084,21.0001827 C142.564214,21.0469583 145.356514,21.0345667 148.140662,21.1763448 C149.110159,21.2257997 150.101172,21.5589225 151.009743,21.933574 C153.029708,22.7667159 153.962627,24.373944 153.981199,26.4988298 C154.002036,28.879921 154.010869,31.2616819 153.979387,33.6425498 C153.944507,36.2802928 152.612397,37.9077272 149.859959,38.5220619 C148.568051,38.8104185 147.218728,38.9562155 145.893299,38.9706166 C141.538207,39.0179504 137.181756,39.0054471 132.826663,38.952085 C131.22333,38.932437 129.643211,38.6477644 128.207708,37.8583839 C126.952492,37.1682482 126.184459,36.1180853 126.077329,34.7111327 C125.988657,33.5466542 125.956835,32.3585088 126.087747,31.2015099 C126.296346,29.3571662 127.545107,28.3094593 129.240509,27.7176752 C130.787673,27.1776903 132.400066,27.0519878 134.023331,27.0491969 C139.137623,27.040266 144.252029,27.0458478 149.366321,27.0458478 L150.015219,27.0458478 Z"/>
    <path fill="#FFF" d="M256.009209,28.9935928 L256.669619,28.9935928 L274.171546,28.9935928 C274.283765,28.9935928 274.39677,28.9847591 274.507979,28.995124 C274.856083,29.0275143 275.017566,28.9025467 274.998489,28.499494 C274.969761,27.8925593 274.991532,27.2831511 274.990634,26.6746852 C274.988951,25.6379611 274.523802,24.8545877 273.61449,24.5401077 C272.778906,24.2510687 271.87644,24.0500135 271.000344,24.0369396 C267.354792,23.9827595 263.708006,23.9950089 260.062005,24.0299904 C259.307667,24.0371751 258.535038,24.1696808 257.805838,24.3789808 C256.644706,24.7120705 256.056566,25.4771876 256.014932,26.566914 C255.985082,27.3484028 256.009209,28.1321295 256.009209,28.9935928 M279,25.3827647 L279,30.0837361 C278.840632,30.7902321 278.500789,31.1082725 277.790404,31.1883963 C277.548529,31.215625 277.302141,31.2106033 277.057896,31.2106033 C270.267587,31.2117193 263.477278,31.2114961 256.686968,31.2114961 L255.984258,31.2114961 C255.984258,32.1302422 255.919021,33.0034583 256.002994,33.8623904 C256.08392,34.6890722 256.678616,35.201173 257.423878,35.5254626 C258.475347,35.9827711 259.595214,36.0897889 260.724675,36.0984932 C262.624228,36.1128887 264.524233,36.0967077 266.424011,36.1073091 C266.796247,36.1093177 267.179318,36.130632 267.538235,36.2190138 C268.278079,36.4012453 268.606071,36.8586655 268.594107,37.5897119 C268.582369,38.3191961 268.231465,38.7430267 267.482027,38.9181163 C267.300311,38.9605217 267.111936,39.002146 266.927286,38.9999141 C264.164412,38.9659898 261.399959,38.9703419 258.639682,38.8657792 C257.25074,38.8132188 255.89656,38.4681729 254.642381,37.8191474 C252.937524,36.9367807 252.048696,35.5390769 252.022736,33.6519258 C251.988199,31.1603864 251.998019,28.6678427 252.019125,26.1759685 C252.037409,24.0121781 253.21213,22.4428442 255.267891,21.7076688 C256.756043,21.1753696 258.300968,21.0025119 259.863048,21.0009496 C264.094548,20.9965975 268.326273,21.0058597 272.557209,21.0570809 C273.910711,21.0733735 275.240059,21.3385188 276.485773,21.90809 C277.988372,22.5952804 278.875395,23.7198042 279,25.3827647"/>
    <path fill="#9CCC65" d="M100.009453 28.9904129L104.431611 28.9904129C109.084324 28.9904129 113.737149 28.9843875 118.389862 28.9999826 118.838182 29.0015185 119.03463 28.9019224 118.995026 28.3876379 118.952954 27.8403909 118.98908 27.2865279 118.984816 26.7356184 118.975729 25.5761448 118.532122 24.8365581 117.470337 24.4713723 116.772391 24.2314201 116.02407 24.0376626 115.296169 24.0293924 111.46616 23.9861514 107.635253 23.9974933 103.804907 24.0197046 103.214665 24.0232489 102.613877 24.1320603 102.037883 24.2786781 100.762485 24.603222 100.062407 25.4206662 100.015174 26.6076675 99.9847704 27.3717103 100.009453 28.1381159 100.009453 28.9904129M99.9606478 31.2244782C99.9606478 32.112775 99.8992301 32.9499869 99.9754377 33.7747065 100.081677 34.9262354 100.952702 35.4711035 101.954239 35.7162663 102.873698 35.9414636 103.838205 36.055568 104.786679 36.0821143 106.722466 36.1360992 108.660849 36.0918182 110.598103 36.1043105 110.950239 36.1064298 111.314681 36.1433492 111.650897 36.2403881 112.28359 36.4226429 112.592485 36.9137492 112.575776 37.5978181 112.559066 38.2853446 112.226011 38.7214622 111.565319 38.89234 111.349228 38.9482211 111.122637 38.9941751 110.900901 38.9941751 108.533046 38.9938405 106.164174 39.0203868 103.797448 38.9628327 102.162427 38.9230132 100.5466 38.6789658 99.0310277 38.0105125 97.0335976 37.1292426 95.9876903 35.6339505 96.0001093 33.4408702 96.0133186 31.099666 96.0030447 28.7581273 96.0030447 26.4169231 96.0030447 23.9372991 97.1779969 22.2767061 99.6030929 21.620522 100.856398 21.2814433 102.18004 21.0546845 103.475795 21.0360575 107.781469 20.9740418 112.089289 20.9996958 116.395415 21.0551307 118.014065 21.0759885 119.603135 21.3675515 121.032677 22.2153596 122.254257 22.939694 122.924094 24.002884 122.967786 25.3995757 123.014301 26.8844947 123.001543 28.3719792 122.984495 29.8579021 122.974673 30.7130718 122.555249 31.1607894 121.664805 31.1884511 120.125637 31.2359667 118.584436 31.2221359 117.044026 31.2230282 111.483466 31.2259282 105.922907 31.2243666 100.362347 31.2245897 100.25114 31.2245897 100.13982 31.2244782 99.9606478 31.2244782M64.0074573 23.4297664C64.0074573 20.5277477 64.0063512 17.6256167 64.0078998 14.723598 64.0085634 13.5919769 64.4808778 13.0802591 65.593416 13.0108317 65.8502576 12.9948792 66.1101965 12.9965643 66.3668169 13.0157748 67.4920755 13.1001436 67.972907 13.6300609 67.9730176 14.7792073 67.9737919 20.2275699 68.0160458 25.6763819 67.9547666 31.1240704 67.9256756 33.700522 69.2095521 34.9902082 71.3181537 35.4836143 72.5773637 35.7782874 73.8991803 35.9006278 75.1946711 35.9134348 80.0609471 35.9615172 84.9278867 35.9321959 89.7946052 35.9338811 90.070804 35.9338811 90.3488832 35.93287 90.6228698 35.9629776 91.4729251 36.0565585 91.9539778 36.555357 91.9966741 37.3657923 92.0406978 38.2028526 91.6479137 38.7291749 90.8040527 38.9226278 90.5561706 38.9794728 90.2939089 38.9910441 90.0381734 38.9911564 84.6964859 38.9931786 79.3546878 39.0171074 74.0132215 38.976552 71.7816191 38.9595883 69.5740195 38.6813172 67.5311216 37.6536125 65.1943269 36.4782904 64.0377651 34.5361218 64.0134304 31.9112508 63.9872153 29.0842766 64.0074573 26.2569653 64.0074573 23.4297664M163.952451 21.2580087C166.657049 21.2580087 169.337855 21.2537279 172.018772 21.2631677 172.366074 21.2644848 172.725161 21.2939018 173.057788 21.3850065 173.66779 21.5520685 173.995081 22.0308622 173.992857 22.6479596 173.990411 23.3542956 173.666122 23.8317722 173.007649 23.9904921 172.635445 24.0800601 172.240561 24.1091477 171.855683 24.1105747 169.228573 24.1204535 166.601463 24.1158434 163.906982 24.1158434L163.906982 24.7254767C163.906982 28.8941218 163.907538 33.0628767 163.90676 37.2315219 163.906537 38.4195056 163.544005 38.8549423 162.34946 38.9819401 161.918667 39.0276022 161.458637 38.9838061 161.036071 38.8829323 160.351695 38.7198219 160.004393 38.2264294 160.004171 37.5096657 160.001503 31.0372783 159.993165 24.5647811 160.011842 18.0925035 160.0174 16.1225558 161.330455 14.5283328 163.435723 13.7796275 164.787466 13.298858 166.184789 13.0601197 167.612462 13.0315809 169.2776 12.9982124 170.945294 12.9805403 172.60943 13.0341055 173.677462 13.068352 174.193189 13.8441692 173.933825 14.8457724 173.795193 15.3814243 173.429659 15.7315738 172.892475 15.7725161 171.903376 15.848144 170.908162 15.8601083 169.915283 15.8718532 168.475715 15.8887569 167.032032 15.8361796 165.641824 16.3178273 164.405033 16.746239 163.906982 17.4306222 163.907204 18.7321026 163.907427 19.5182377 163.908761 20.3043727 163.911207 21.0906175 163.911318 21.1245348 163.927215 21.1583423 163.952451 21.2580087"/>
    <path fill="#FFF" d="M234.009895 32.0192035C234.009895 30.4365668 234.042964 28.8531572 234.00291 27.2716247 233.925094 24.1922574 235.411685 22.5789242 238.001788 21.7093739 239.674681 21.147672 241.414804 21.0190338 243.163113 21.0055627 244.308207 20.9968396 245.455265 20.9908769 246.598285 21.0481844 247.61885 21.0993085 248.081056 21.7153365 247.988397 22.7377068 247.935901 23.3176278 247.647226 23.7194428 247.103929 23.8623251 246.688434 23.97164 246.247182 24.0013428 245.815317 24.0223224 244.075739 24.1066826 242.333542 24.1483106 240.596039 24.2650235 240.142017 24.2956096 239.686032 24.5037496 239.25875 24.6940017 238.294064 25.1236423 237.852813 25.893705 237.856851 26.9659847 237.869511 30.3887553 237.862089 33.811526 237.861325 37.2342967 237.861107 38.4091557 237.470715 38.8689407 236.308704 38.9827828 235.917657 39.0210982 235.506528 38.9942664 235.121374 38.9142126 234.382607 38.7608404 234.015025 38.2478334 234.012078 37.4294072 234.00542 35.6260427 234.010004 33.8225679 234.009895 32.0192035M225.000946 30.0335755C225.000946 27.5734936 224.999807 25.1133022 225.001402 22.6532203 225.002085 21.6261342 225.427652 21.1537949 226.492593 21.0290344 226.809945 20.9918251 227.138574 20.9912779 227.456838 21.0222491 228.534765 21.1272012 228.998035 21.625587 228.998491 22.6647114 229.000427 27.5668178 229.000655 32.4689242 228.998263 37.3710306 228.997807 38.3891427 228.609148 38.835326 227.548535 38.9670907 227.125019 39.0196215 226.679746 39.0068171 226.256458 38.9460784 225.423323 38.8266803 225.004022 38.3316872 225.002541 37.5233699 224.997985 35.0268447 225.000946 32.5302101 225.000946 30.0335755M226.930122 14C227.233134 14.0281737 227.441447 14.0328482 227.646019 14.0691076 228.486655 14.2183144 228.959519 14.8621396 228.997045 15.8937001 229.037793 17.014709 228.658067 17.7285261 227.798305 17.914624 227.282301 18.0264343 226.726798 18.0261816 226.208508 17.9270052 225.423173 17.7766614 225.013925 17.0806581 225.000412 16.0906631 224.985755 15.0342137 225.362155 14.37308 226.153103 14.1278554 226.434597 14.0405549 226.732515 14.0308268 226.930122 14"/>
  </g>
</svg>
