<svg xmlns="http://www.w3.org/2000/svg" width="205" height="41" viewBox="0 0 205 41">
  <g fill="none" fill-rule="evenodd">
    <path fill="#010101" d="M21.6653323 0C21.9917074.0516418511 22.3188211.098334004 22.6442114.155832998 23.8095436.361575453 24.9743014.570865191 26.2381125.796571429 23.8597678 8.0261006 21.5126081 15.1609256 19.1501841 22.3424427L27.9440933 22.3424427C27.5696277 24.0362294 27.2039432 25.6904185 26.8351401 27.3587968L12.0158887 27.3587968C14.49501 19.6948491 16.9692074 12.046328 19.4457026 4.39062978 13.1423219 4.57756338 6.08467574 9.32234406 4.53929744 17.5178068 3.02067254 25.5708008 7.7957446 33.5566439 15.50253 35.9592274 23.3483347 38.4050382 31.7072138 34.6435976 35.0515532 27.1980966 38.4253543 19.6870946 35.7470596 10.3843018 27.7519776 6.100833 28.0268975 5.45407243 28.3013251 4.80244467 28.5805124 4.15296177 28.8594536 3.50422133 29.1432366 2.85746076 29.4696938 2.10667404 30.493791 2.76490141 31.5189552 3.33956137 32.4523699 4.03829376 36.5172458 7.08079074 39.2149079 11.0826217 40.2504944 16.0700201 41.7036309 23.0687284 40.0122578 29.2938813 35.1780164 34.5662173 32.1641553 37.8531469 28.4011169 39.8563722 24.0226681 40.6661429 23.3796837 40.7851006 22.7244716 40.8368249 22.0755785 40.9242696 22.0185428 40.9319416 21.9661029 40.9739316 21.9115292 41L18.7109688 41C18.6158547 40.9701368 18.5226281 40.9271569 18.4252982 40.9124728 17.7785388 40.8152113 17.124968 40.7537525 16.4845276 40.6258028 12.2575721 39.7813843 8.6369996 37.8046398 5.65818054 34.6728833 2.71120296 31.5746197.906907526 27.8977364.242504003 23.6595573.165690552 23.1693722.080998799 22.6805895 0 22.1911469L0 18.8088531C.0273278623 18.7544889.0742694155 18.7018571.0791933547 18.6454306.247017614 16.7355895.63576261 14.8681509 1.37665132 13.1048209 4.51180544 5.6432334 10.0589512 1.29475855 18.0605164.154348089 18.387466.107738431 18.7130204.0516418511 19.0392314 0L21.6653323 0zM154.085125 25.0666353C155.073278 23.0897258 156.032543 21.1694079 156.993121 19.2497499 157.647513 17.9417097 158.299689 16.6325145 158.960563 15.3277741 159.437283 14.386589 160.224457 14.0681584 161.219421 14.3978083 162.031624 14.6669069 162.317623 15.3934401 161.909675 16.2183898 161.576406 16.8921262 161.21064 17.5496111 160.860137 18.2147681 159.132409 21.4930357 157.407389 24.7727882 155.675886 28.0489934 155.211722 28.9273998 154.451794 29.2459954 153.552519 28.9613053 153.015481 28.7912831 152.720045 28.3715487 152.466462 27.9023998 151.178852 25.5203576 149.887385 23.1403777 148.59682 20.7599029 148.225227 20.0743697 147.85347 19.3890015 147.478922 18.7051182 147.429026 18.6140437 147.362143 18.5323737 147.284427 18.4191906 146.122377 20.569752 144.980515 22.6841805 143.837341 24.7979491 143.245319 25.8927399 142.665443 26.9944602 142.053398 28.0777841 141.559198 28.9524783 140.962499 29.1857741 139.98838 28.9811041 139.46078 28.8702308 139.189389 28.4963636 138.959523 28.0609552 138.040305 26.3194864 137.121416 24.5777701 136.199326 22.8377862 135.066 20.6993516 133.928324 18.5632268 132.795079 16.4246272 132.340107 15.5659371 132.488318 14.7973314 133.2091 14.4843455 133.970587 14.1537057 135.140597 14.1334119 135.713826 15.3137499 137.224819 18.4256252 138.776352 21.5175367 140.311965 24.6172852 140.372611 24.7396252 140.435884 24.8607278 140.527387 25.0405668 141.055808 24.0484823 141.563055 23.0960779 142.070467 22.1438385 143.285696 19.863265 144.511592 17.5883837 145.709833 15.2988184 146.060335 14.6292067 146.570948 14.2955145 147.30921 14.295762 148.049689 14.295927 148.552587 14.6419109 148.902351 15.3078103 150.574192 18.4907137 152.267371 21.6623153 153.953246 24.8377942 153.984841 24.8975206 154.020621 24.9551021 154.085125 25.0666353"/>
    <path fill="#0B9E02" d="M110.293192,22.0550797 C110.220236,22.0410555 110.194549,22.0318161 110.168781,22.0318161 C106.291425,22.0312386 102.414069,22.0191119 98.5368773,22.0447678 C97.9614329,22.0486451 97.3698217,22.1740374 96.816535,22.3443895 C96.0713789,22.5737256 95.7665871,23.0420495 95.7550158,23.7726249 C95.747794,24.2256873 95.7597756,24.6789147 95.7586267,25.1320596 C95.7569854,25.7355928 96.0429842,26.2020193 96.584043,26.3824358 C97.2209546,26.5947779 97.900294,26.7821239 98.563959,26.7918584 C101.501089,26.8350857 104.439367,26.8276612 107.376743,26.796808 C107.979351,26.7904559 108.596485,26.6612688 109.177017,26.4876169 C109.799732,26.3015082 110.262582,25.86346 110.284822,25.1595304 C110.31732,24.132468 110.293192,23.1035082 110.293192,22.0550797 Z M110.273661,20.1286571 C110.43812,18.7753272 109.678603,18.1010133 108.227354,17.916307 C107.404974,17.8116209 106.565114,17.8350495 105.732886,17.8221803 C104.816787,17.8080736 103.89995,17.834967 102.984179,17.8134358 C102.137344,17.7935545 101.753605,17.4303292 101.756231,16.7143553 C101.758282,16.1266612 102.069311,15.7640958 102.648613,15.6764861 C102.715989,15.6663392 102.784924,15.6599871 102.852956,15.6611421 C104.874151,15.6957074 106.897644,15.6865505 108.915228,15.7913191 C109.617792,15.8278644 110.335949,16.0740294 110.994361,16.3508825 C112.458166,16.9665425 113.134223,18.1542225 113.147682,19.7244318 C113.162782,21.483967 113.169183,23.2439972 113.146369,25.0033674 C113.121093,26.9525586 112.155754,28.1551702 110.161149,28.60914 C109.224944,28.8222245 108.247132,28.929963 107.286635,28.9406048 C104.130636,28.9755827 100.973653,28.9663433 97.8176539,28.9269107 C96.6557684,28.9123915 95.5107064,28.7020294 94.4704422,28.1187074 C93.5608265,27.6087235 93.0042572,26.8326934 92.9266231,25.7930093 C92.8623657,24.9325042 92.8393052,24.0545103 92.9341731,23.1995324 C93.0853381,21.836633 93.990276,21.0624177 95.2188809,20.6251119 C96.3400618,20.2260837 97.5085126,20.1331944 98.6848417,20.131132 C102.391009,20.1245324 106.097258,20.1286571 109.803425,20.1286571 L110.273661,20.1286571 Z"/>
    <path fill="#020202" d="M188.106822,21.4169736 L188.589778,21.4169736 L201.388902,21.4169736 C201.470967,21.4169736 201.553607,21.4107865 201.634934,21.4180461 C201.889502,21.4407322 202.007594,21.353205 201.993643,21.0709072 C201.972635,20.6458106 201.988555,20.2189817 201.987899,19.7928127 C201.986668,19.0666919 201.646506,18.5180179 200.981528,18.2977563 C200.370467,18.0953137 199.710495,17.9544947 199.069808,17.9453378 C196.403823,17.9073901 193.736936,17.9159696 191.070623,17.9404706 C190.518978,17.9455028 189.953956,18.0383096 189.420693,18.1849032 C188.57156,18.418199 188.141454,18.9540863 188.111007,19.7173298 C188.089178,20.2646839 188.106822,20.8136054 188.106822,21.4169736 M204.853878,18.9964887 L204.853878,22.4716718 C204.738001,22.9939475 204.490901,23.2290581 203.97438,23.2882895 C203.798513,23.3084183 203.619364,23.304706 203.441774,23.304706 C198.50454,23.305531 193.567306,23.305366 188.630072,23.305366 L188.119132,23.305366 C188.119132,23.9845471 188.071698,24.6300702 188.132755,25.265034 C188.191596,25.8761567 188.624,26.2547261 189.165879,26.4944565 C189.930403,26.8325209 190.744658,26.9116336 191.565889,26.9180682 C192.947054,26.92871 194.328547,26.9167483 195.709876,26.9245853 C195.980529,26.9260702 196.25906,26.9418267 196.520028,27.0071628 C197.057969,27.141877 197.296452,27.4800239 197.287753,28.0204485 C197.279218,28.5597181 197.024076,28.873034 196.47916,29.0024686 C196.347034,29.0338167 196.210066,29.0645873 196.075807,29.0629374 C194.066922,29.0378589 192.056888,29.0410762 190.04989,28.9637785 C189.03999,28.9249233 188.055367,28.6698489 187.143453,28.1900581 C185.903851,27.5377704 185.257584,26.5045209 185.238709,25.1094485 C185.213597,23.2675833 185.220737,21.4249756 185.236083,19.582863 C185.249378,17.9832855 186.103517,16.8231587 187.598261,16.2796819 C188.680297,15.8861809 189.803611,15.7583962 190.9394,15.7572412 C194.016123,15.7540239 197.093011,15.760871 200.169324,15.7987362 C201.153455,15.8107805 202.120024,16.0067885 203.025783,16.4278428 C204.118323,16.9358469 204.763277,17.7671487 204.853878,18.9964887"/>
    <path fill="#0B9E03" d="M73.290438,21.3011004 L76.5251377,21.3011004 C79.9284824,21.3011004 83.3319091,21.2968932 86.7352538,21.3077825 C87.0631882,21.3088549 87.2068851,21.2393117 87.1779159,20.8802111 C87.1471413,20.4980944 87.1735665,20.1113579 87.170448,19.7266839 C87.1638006,18.9170783 86.8393131,18.4006598 86.0626437,18.1456678 C85.5521133,17.9781205 85.0047354,17.8428288 84.4722934,17.8370541 C81.6707362,17.806861 78.8685224,17.8147805 76.066719,17.8302895 C75.6349716,17.8327644 75.19551,17.9087423 74.7741849,18.0111185 C73.8412626,18.2377322 73.3291729,18.8085149 73.2946233,19.6373419 C73.2723835,20.1708368 73.290438,20.7059817 73.290438,21.3011004 M73.3062766,23.2059918 C73.3062766,23.8629817 73.2616329,24.4821889 73.3170272,25.0921567 C73.394251,25.9438348 74.0273875,26.3468227 74.7553919,26.5281467 C75.4237346,26.694704 76.1248215,26.7790964 76.814255,26.7987302 C78.2213527,26.8386577 79.6303379,26.8059072 81.0385024,26.8151467 C81.2944652,26.8167141 81.5593731,26.8440199 81.8037646,26.9157905 C82.2636605,27.0505873 82.4881922,27.4138127 82.4760464,27.9197543 C82.4639007,28.4282533 82.221807,28.7508087 81.7415588,28.8771909 C81.5844852,28.9185209 81.4197794,28.9525089 81.2586025,28.9525089 C79.5374396,28.9522614 77.815538,28.9718952 76.0951958,28.9293278 C74.906721,28.8998771 73.7321974,28.7193781 72.630548,28.2249857 C71.1786425,27.573193 70.4183863,26.4672654 70.4274135,24.8452493 C70.4370152,23.1136799 70.4295472,21.381863 70.4295472,19.6502936 C70.4295472,17.8163479 71.2836045,16.5881628 73.0463747,16.1028449 C73.9573855,15.8520602 74.9195232,15.6843479 75.8613907,15.6705712 C78.9911285,15.624704 82.1224255,15.6436779 85.2524916,15.6846779 C86.4290669,15.7001044 87.5841409,15.9157463 88.6232562,16.5427905 C89.5112066,17.0785129 89.9981021,17.8648549 90.0298615,18.8978569 C90.0636725,19.9961125 90.0543991,21.0962654 90.0420072,22.1952634 C90.0348675,22.8277523 89.7299936,23.1588871 89.0827418,23.1793459 C87.9639408,23.2144887 86.8436625,23.2042594 85.7239588,23.2049193 C81.6820612,23.2070642 77.6401637,23.2059093 73.5982662,23.2060742 C73.5174315,23.2060742 73.4365148,23.2059918 73.3062766,23.2059918"/>
    <path fill="#0B9E02" d="M46.9362272 17.5303461C46.9362272 15.399336 46.9354065 13.2682435 46.9365554 11.1372334 46.9370478 10.3062616 47.2874682 9.93049698 48.1128845 9.87951509 48.303441 9.8678008 48.4962952 9.86903823 48.6866876 9.88314487 49.5215414 9.94509859 49.8782808 10.3342274 49.8783629 11.1780684 49.8789373 15.1789095 49.9102864 19.1800805 49.8648221 23.1804266 49.8432388 25.0723662 50.7957748 26.0194085 52.3601924 26.3817264 53.2944277 26.5981107 54.2751123 26.6879477 55.2362652 26.6973521 58.8466615 26.73266 62.4575502 26.7111288 66.0682748 26.7123662 66.2731928 26.7123662 66.4795058 26.7116237 66.6827824 26.7337324 67.313457 26.8024507 67.6703605 27.1687284 67.7020378 27.7638471 67.7347 28.3785171 67.4432848 28.765006 66.817206 28.9070624 66.6332968 28.9488048 66.4387192 28.9573018 66.2489834 28.9573843 62.2858689 28.9588692 58.3226723 28.9764406 54.359722 28.94666 52.7040474 28.9342032 51.0661811 28.7298632 49.5505106 27.9751992 47.8167916 27.1121368 46.9587132 25.6859638 46.9406587 23.7584688 46.9212092 21.6825654 46.9362272 19.6064145 46.9362272 17.5303461M120.435655 15.7758195C122.432148 15.7758195 124.411079 15.7726022 126.390093 15.7796967 126.646466 15.7806867 126.911538 15.8027953 127.157078 15.8712662 127.607372 15.9968235 127.848974 16.3566666 127.847332 16.8204533 127.845527 17.3513084 127.606141 17.7101615 127.120066 17.8294493 126.845311 17.8967651 126.553813 17.9186263 126.269702 17.9196987 124.330409 17.9271233 122.391115 17.9236585 120.40209 17.9236585L120.40209 18.3818356C120.40209 21.5148295 120.4025 24.647906 120.401926 27.7809 120.401762 28.673743 120.134146 29.0010006 119.25235 29.0964472 118.934346 29.1307651 118.594758 29.0978497 118.282827 29.0220368 117.777631 28.8994493 117.521257 28.5286344 117.521093 27.9899422 117.519124 23.1255438 117.512969 18.2610629 117.526756 13.396747 117.530859 11.9162098 118.500137 10.7180529 120.054214 10.1553547 121.05205 9.79402672 122.083533 9.61460016 123.13742 9.59315146 124.3666 9.56807299 125.597667 9.5547913 126.826107 9.59504885 127.614512 9.62078728 127.995215 10.2038617 127.803755 10.9566283 127.70142 11.3592038 127.431588 11.6223627 127.035046 11.6531334 126.304908 11.7099724 125.570257 11.7189643 124.837328 11.7277913 123.77466 11.7404955 122.708956 11.7009804 121.682725 12.0629684 120.769744 12.3849462 120.40209 12.8993024 120.402254 13.8774452 120.402418 14.4682742 120.403403 15.0591032 120.405209 15.6500146 120.405291 15.6755056 120.417026 15.700914 120.435655 15.7758195"/>
    <path fill="#010101" d="M172.263245,23.9065785 C172.263245,22.7241781 172.288111,21.5412002 172.257993,20.3596247 C172.19948,18.059005 173.317296,16.853671 175.264878,16.2040231 C176.522781,15.7843712 177.831236,15.6882646 179.145845,15.6782002 C180.006878,15.6716831 180.869388,15.6672284 181.728862,15.7100432 C182.496258,15.7482384 182.843806,16.2084779 182.774132,16.9722988 C182.734658,17.4055624 182.517595,17.7057616 182.109072,17.81251 C181.796648,17.8941801 181.464856,17.9163712 181.140123,17.9320453 C179.832078,17.9950714 178.522064,18.026172 177.215579,18.1133692 C176.874186,18.1362203 176.531316,18.2917233 176.210029,18.4338622 C175.48465,18.7548501 175.152859,19.33017 175.155895,20.1312787 C175.165415,22.6884577 175.159834,25.2456368 175.15926,27.8028159 C175.159096,28.6805624 174.865547,29.0240714 173.991794,29.1091237 C173.697753,29.1377495 173.388611,29.1177032 173.099002,29.0578944 C172.543499,28.9433088 172.267102,28.5600372 172.264886,27.9485845 C172.25988,26.6012766 172.263327,25.2538863 172.263245,23.9065785"/>
    <path fill="#000" d="M165.609168,22.318544 C165.609168,20.4641396 165.608348,18.6096526 165.609497,16.7552482 C165.609989,15.9810329 165.916586,15.6249846 166.683818,15.5309404 C166.912453,15.5028921 167.149212,15.5024796 167.378504,15.5258257 C168.155091,15.6049383 168.488852,15.9806204 168.48918,16.7639102 C168.490576,20.4591074 168.49074,24.1543045 168.489016,27.8495017 C168.488688,28.6169524 168.20868,28.9532844 167.444567,29.0526084 C167.139447,29.092206 166.818652,29.082554 166.513696,29.0367693 C165.913468,28.9467673 165.611384,28.5736426 165.610317,27.9643347 C165.607035,26.0824595 165.609168,24.2005017 165.609168,22.318544"/>
    <path fill="#020202" d="M166.96353,11.3407237 C167.202752,11.3591201 167.367211,11.3621724 167.528716,11.3858485 C168.192381,11.4832751 168.565698,11.9036694 168.595324,12.5772408 C168.627493,13.3092187 168.327708,13.7753153 167.648943,13.8968304 C167.241569,13.9698384 166.80301,13.9696734 166.39383,13.9049149 C165.773824,13.8067459 165.450732,13.3522811 165.440063,12.7058505 C165.428492,12.0160276 165.725652,11.5843314 166.350089,11.4242087 C166.572323,11.3672046 166.807523,11.3608525 166.96353,11.3407237"/>
  </g>
</svg>
